<?xml version="1.0" encoding="UTF-8" standalone="no"?>
<!-- Created with Inkscape (http://www.inkscape.org/) -->

<svg
   width="163.52014mm"
   height="201.94986mm"
   viewBox="0 0 163.52014 201.94986"
   version="1.1"
   id="svg1"
   xmlns="http://www.w3.org/2000/svg"
   xmlns:svg="http://www.w3.org/2000/svg">
  <defs
     id="defs1" />
  <g
     id="layer1"
     transform="translate(0.04186964,-0.03153165)">
    <path
       fill="#17255e"
       opacity="1"
       stroke="none"
       d="m 163.36662,173.11853 c -0.0478,0.55146 -0.0955,1.10292 -0.21145,1.77649 -0.12729,0.2054 -0.10951,0.27474 -0.0148,0.33013 -0.10418,0.65311 -0.20836,1.30621 -0.44521,2.06666 -0.27095,0.17911 -0.4092,0.25087 -0.54767,0.2463 -0.0525,-0.21194 -0.10489,-0.34754 -0.15721,-0.48316 -0.0533,0.0614 -0.16304,0.15968 -0.15091,0.17819 0.0891,0.13607 0.20255,0.25619 0.31716,0.47336 0.10174,0.31944 0.19469,0.54686 0.28764,0.77427 -0.18183,0.70385 -0.36367,1.40771 -0.64545,2.13793 -0.20622,-0.15511 -0.3125,-0.33659 -0.41876,-0.51807 -0.16187,0.11968 -0.48006,0.30128 -0.46105,0.34928 0.16046,0.40505 0.38254,0.78571 0.58611,1.17369 -0.17828,0.47442 -0.35655,0.94884 -0.68636,1.44691 -0.6181,-0.23619 -1.08467,-0.49602 -1.78899,-0.88824 -0.13583,1.03497 -0.23592,1.79761 -0.32751,2.49559 0.61546,0.0451 0.99883,0.0731 1.38223,0.10125 -0.0878,0.20982 -0.17564,0.41964 -0.39696,0.6582 -2.70689,0.59725 -3.6214,2.08444 -2.81381,4.38752 -0.14998,0.22355 -0.29995,0.44711 -0.6032,0.72678 -0.25638,0.23149 -0.35947,0.40687 -0.46255,0.58226 -0.35997,0.42393 -0.71995,0.84787 -1.23754,1.27668 -2.20928,0.15345 -2.21205,0.15634 -2.20849,2.1319 -1.4825,1.06531 -2.96501,2.1306 -4.6325,3.19556 -0.3778,-0.26247 -0.57064,-0.52458 -0.76348,-0.78668 0.2825,-0.11225 0.56296,-0.31385 0.84789,-0.32041 0.94646,-0.0218 1.56767,-0.32062 1.55533,-1.36928 -0.15646,-0.0755 -0.24845,-0.16087 -0.30781,-0.14225 -0.77765,0.24391 -1.54819,0.51043 -2.32542,0.75575 -1.34265,0.42378 -1.67665,1.70449 -0.73748,2.85412 -0.19377,0.1086 -0.38754,0.2172 -0.75247,0.28717 -0.4683,-0.16985 -0.76542,-0.30106 -1.06255,-0.43227 -0.0898,0.34246 -0.17965,0.68491 -0.26947,1.02736 0,0 -0.0142,-0.0343 -0.0701,-0.0497 -0.19713,0.0842 -0.33829,0.18385 -0.47946,0.28346 -0.20404,0.0969 -0.40808,0.19382 -0.71288,0.20192 -0.94094,-0.32456 -1.78109,-0.56031 -2.71487,-0.82234 0.18544,0.5784 0.34998,1.09161 0.51452,1.60481 -2.51444,0.37483 -5.02648,1.05371 -7.54375,1.07372 -13.4718,0.10713 -26.9449,0.0534 -40.41753,0.0403 -0.786773,-7.9e-4 -1.573434,-0.13331 -2.478862,-0.33423 -0.59608,-0.81823 -0.924484,-1.79489 -1.58205,-2.13484 -1.335939,-0.69068 -2.868258,-0.80281 -4.378399,-0.40811 -0.132226,-0.0668 -0.264462,-0.13363 -0.391811,-0.33866 0.297066,-0.26613 0.589248,-0.39405 0.796801,-0.48493 0,-0.58004 0,-1.12051 0,-1.65694 -0.261924,0.051 -0.514075,0.10017 -0.788549,0.15365 -0.03893,-0.15816 -0.04712,-0.29003 -0.102272,-0.39792 -0.213431,-0.41763 -0.441809,-0.82763 -0.66463,-1.24046 -0.35773,0.36018 -0.738384,0.70128 -1.061829,1.08998 -0.128087,0.15393 -0.129111,0.41357 -0.187991,0.62509 -0.150006,-0.15662 -0.300004,-0.31325 -0.460338,-0.6527 0.175037,-0.67275 0.36041,-1.16269 0.664405,-1.96615 -0.767,0.28027 -1.204394,0.44008 -1.641784,0.59991 -0.03049,-0.0341 -0.06098,-0.0681 -0.05628,-0.25574 0.141812,-0.72163 0.832951,-1.66429 -0.645906,-1.21648 0,0 0.05696,-0.0183 0.03557,-0.0842 -0.07483,-0.13599 -0.12828,-0.20615 -0.181724,-0.27634 -0.194521,-0.55211 -0.389035,-1.10421 -0.477676,-1.75848 0.291156,-0.26736 0.476449,-0.43253 0.661742,-0.59772 -0.328245,-0.18628 -0.656479,-0.37254 -0.984721,-0.55882 -0.0879,-2.03448 -0.175821,-4.06898 -0.134842,-6.22676 0.684035,-0.0805 1.238773,-0.008 1.794422,-5.3e-4 1.623587,0.0234 3.247533,0.0211 4.871344,0.0289 0.01016,0.61955 0.02035,1.23909 -0.0643,2.046 -0.04149,0.35978 0.0118,0.53219 0.06511,0.70461 0.01482,0.45653 0.02963,0.91306 -0.0712,1.50937 -0.209614,0.58798 -0.385046,1.03797 -0.375243,1.4839 0.01035,0.4709 0.233998,0.93304 0.297429,1.40796 0.07331,0.54887 0.07343,1.10754 0.105315,1.66195 0.315817,-0.43859 0.63164,-0.87718 0.947473,-1.31577 0.488915,0.5905 0.977839,1.18102 1.517057,1.93587 0.224832,0.26195 0.39937,0.35957 0.573908,0.45719 0.580488,0.29444 1.160975,0.5889 1.842304,0.96569 0.100843,0.0823 0.211947,0.11351 0.211947,0.11351 1.133724,0.1002 2.26731,0.28572 3.401198,0.28755 12.804182,0.0207 25.608502,0.0332 38.412602,-0.01 1.79101,-0.006 3.58099,-0.32041 5.47911,-0.39962 0.28295,0.27547 0.45823,0.45852 0.57717,0.71667 -0.50399,0.14047 -0.95345,0.19558 -1.39874,0.27429 -0.37483,0.0662 -0.7448,0.15992 -1.11694,0.24144 2.14134,0.74206 4.03309,0.24272 3.9732,-0.79872 -0.46979,0.0697 -0.93548,0.13878 -1.40131,0.10773 -0.002,-0.30045 -0.003,-0.50075 -0.004,-0.70104 0,0 5e-5,0.009 0.0404,5.3e-4 0.0983,-0.022 0.14904,-0.049 0.19271,-0.0893 0.9998,-0.34095 1.99963,-0.68189 3.12054,-0.98465 0.15301,0.0557 0.18494,0.0731 0.21685,0.0906 -0.0266,-0.063 -0.0533,-0.12606 -0.0799,-0.18908 0,0 0.0522,-0.0426 0.15396,-0.0191 0.17372,-0.0366 0.24566,-0.0967 0.31761,-0.15683 0.46977,-0.25521 0.93955,-0.51039 1.50124,-0.6784 -0.11257,0.47318 -0.31706,0.85917 -0.69059,1.56429 0.83165,-0.0519 1.4733,-0.0107 2.06948,-0.15608 0.43877,-0.10692 0.7912,-0.55479 1.23039,-0.67631 0.61546,-0.17034 1.17376,-0.21108 0.71142,-1.08524 -0.0688,-0.13016 0.24595,-0.52387 0.45312,-0.72299 0.22445,-0.21573 0.70414,-0.29513 0.7714,-0.52291 0.29792,-1.00858 1.09139,-1.39987 1.94843,-1.69693 1.05799,-0.36674 1.74966,-0.94605 1.91224,-2.15029 0.0913,-0.67615 0.42616,-1.35119 1.37236,-1.29556 0.18906,0.0111 0.39419,-0.25152 0.5919,-0.38791 -0.12478,-0.0268 -0.24956,-0.0535 -0.37434,-0.0803 -0.0458,-0.73503 -0.0916,-1.47007 -0.13737,-2.2051 0.0495,-0.13152 0.099,-0.26302 0.3174,-0.42948 0.21177,-0.0373 0.25646,-0.0326 0.29735,-0.0429 2.23613,-0.565 2.44413,-1.14883 0.96643,-2.70988 0.0825,-0.27813 0.1651,-0.55627 0.34972,-0.96451 0.12434,-0.23169 0.14666,-0.33323 0.16898,-0.43479 0.0383,-0.22111 0.0766,-0.44221 0.21161,-0.63724 0.27274,0.28087 0.4487,0.53563 0.53741,0.80486 -0.17002,0.20789 -0.25277,0.40127 -0.33551,0.59467 0.14529,0.0349 0.29059,0.0698 0.43589,0.10469 -0.003,-0.2363 -0.005,-0.47261 0.064,-0.77425 0.25729,-0.68155 0.38272,-1.26525 -0.57658,-1.26025 0.16636,-0.81954 0.33271,-1.63909 0.59306,-2.62857 0.11154,-0.41037 0.12905,-0.65081 0.14655,-0.89125 0.021,-0.60893 0.042,-1.21787 0.13706,-1.97266 0.12625,-0.2017 0.16489,-0.26577 0.28793,-0.33124 0.28547,0.35896 0.47291,0.7111 0.66038,1.12842 2e-5,0.0652 -2e-5,0.19555 -0.0443,0.21954 -0.0143,0.0968 0.0156,0.16968 0.13347,0.24251 0.20503,0 0.32219,0 0.51573,-0.0716 0.0261,-1.78798 -0.0242,-3.50434 0.0303,-5.24474 0.21087,-0.50969 0.40963,-0.99529 0.40988,-1.481 0.0148,-29.31861 0.0133,-58.63721 0.0126,-87.955809 0,-0.352491 0.0487,-0.719966 -0.0367,-1.051809 -0.0506,-0.196678 -0.31971,-0.337132 -0.49117,-0.604785 0.0554,-1.030258 -0.54406,-1.200475 -1.29392,-1.322101 -0.0922,-0.834994 -0.17277,-1.557989 -0.25337,-2.280989 C 155.85781,65.902651 152.4503,60.242039 146.9741,55.536242 130.56442,41.435318 114.269,27.201124 97.94036,13.005779 88.600577,4.886217 74.992202,4.80397 65.643943,12.904087 48.727356,27.562061 31.807725,42.216847 14.957404,56.950779 9.6930123,61.553975 6.8493413,67.507116 6.8341413,74.522975 c -0.06992,32.272165 -0.08274,64.544655 -0.0088,96.816795 0.02931,12.79979 10.7912407,23.59113 23.6059337,23.74289 11.417176,0.13521 22.837134,0.0447 34.255829,0.0288 1.357693,-0.002 2.560111,0.28052 3.38978,1.40756 0.789115,1.07197 0.939261,2.28275 0.343834,3.49406 -0.641103,1.30423 -1.741222,1.94 -3.197815,1.94039 -4.805576,10e-4 -9.611158,2.6e-4 -14.416735,2.6e-4 -6.304566,-2e-5 -12.611309,-0.10716 -18.913263,0.0211 C 16.1243,202.29634 2.2697348,190.77601 0.05118406,174.49106 -0.04186994,140.21448 -0.04186994,105.98952 -0.04186964,71.640551 0.33856786,69.913928 0.66712633,68.296868 1.1084365,66.711183 3.0047632,59.897456 7.0760973,54.609436 12.389503,50.038235 28.652388,36.047029 44.816889,21.941376 61.006095,7.864642 72.792878,-2.384128 90.034971,-2.648116 101.94904,7.498923 c 11.83784,10.082107 23.50311,20.366848 35.24494,30.561701 5.02294,4.361191 10.03804,8.73152 15.07495,13.076563 6.19316,5.342503 9.92092,12.016345 10.88955,20.266702 -0.13008,0.115448 -0.17582,0.116554 -0.30901,0.116133 -0.20427,-0.0024 -0.32104,-0.0033 -0.4378,-0.105653 -0.16785,-0.441293 -0.33573,-0.78105 -0.50362,-1.120804 -0.18448,0.407556 -0.36897,0.815107 -0.55369,1.346242 -5.3e-4,32.585163 -8e-4,65.046743 -0.10531,97.532083 -0.5018,1.18297 -0.88201,2.34114 0.10881,3.49498 0.0899,0.20323 0.1753,0.32677 0.26074,0.55706 0.0622,0.47183 0.12428,0.83691 0.18639,1.20198 0.14765,0.0115 0.2953,0.0231 0.44293,0.0346 0.14277,-0.448 0.28553,-0.896 0.4938,-1.34463 0.0655,-5.3e-4 0.1965,-0.002 0.26791,-0.001 0.16659,0.002 0.26179,0.003 0.35699,0.004 m -60.08871,27.51473 c -3.07103,0 -6.14203,0 -9.213059,0 0.0035,0.11493 0.007,0.22986 0.01042,0.3448 12.397659,0 24.795319,0 37.192979,0 -1.6e-4,-0.11494 -2.7e-4,-0.22987 -5.3e-4,-0.3448 -9.24177,0 -18.48352,0 -27.98986,0 M 79.105918,187.64324 c 0.08199,0.23823 0.163975,0.47646 0.245962,0.71469 0.113731,-0.10738 0.227459,-0.21473 0.341188,-0.32211 0,-0.70115 0,-1.40229 0,-2.10344 -0.140586,-0.01 -0.281178,-0.0191 -0.421762,-0.0286 -0.06486,0.50953 -0.129722,1.01906 -0.165388,1.73941 m 59.831242,10.87106 c 0.19912,-0.0786 0.39824,-0.15719 0.59735,-0.23579 -0.0165,-0.0551 -0.0331,-0.11018 -0.0496,-0.16527 -0.50438,0 -1.00876,0 -1.51314,0 -0.008,0.0811 -0.0153,0.16214 -0.0229,0.24321 0.26104,0.0531 0.52209,0.10616 0.98828,0.15785 m -3.14217,2.07862 c 0.19333,-0.14016 0.38667,-0.28033 0.58,-0.42049 -0.224,-0.19874 -0.448,-0.3975 -0.672,-0.59626 -0.0825,0.0539 -0.16508,0.10786 -0.24761,0.16178 0.0547,0.26596 0.10939,0.53191 0.33961,0.85497 m -44.429113,-1.97846 c -0.204396,-0.18832 -0.4088,-0.37663 -0.613212,-0.56493 -0.08369,0.12724 -0.167375,0.25448 -0.25106,0.38173 0.239739,0.0992 0.47947,0.19829 0.864272,0.1832 m 55.801303,-4.77563 c 0.26841,0.0974 0.53681,0.19482 0.80522,0.29223 0.0268,-0.11629 0.0536,-0.23258 0.0804,-0.34887 -0.28405,-0.042 -0.56809,-0.0839 -0.88566,0.0566 m 3.46409,0.89062 c 0.14454,0.0895 0.28911,0.17908 0.43367,0.26862 0.0357,-0.0725 0.0714,-0.145 0.10707,-0.21752 -0.14158,-0.0542 -0.28315,-0.10836 -0.54074,-0.0511 m -61.404893,0.78613 c 0.09556,0.14558 0.191122,0.29117 0.286673,0.43675 0.07077,-0.0981 0.141529,-0.19621 0.212294,-0.29431 -0.130347,-0.0825 -0.260691,-0.16497 -0.498967,-0.14244 m -9.443281,-3.2155 c 0.113456,0.0989 0.224753,0.20083 0.346088,0.28889 0.0069,0.005 0.09625,-0.10381 0.147223,-0.15965 -0.127384,-0.0738 -0.254768,-0.14765 -0.493311,-0.12924 m 75.335604,-2.06359 c 0.0719,0.0753 0.14377,0.15069 0.21565,0.22603 0.0312,-0.0298 0.0911,-0.084 0.0894,-0.086 -0.0671,-0.0795 -0.13979,-0.15419 -0.30509,-0.14005 m 6.68617,-14.58864 c 0.0755,-0.072 0.15095,-0.14405 0.22643,-0.21607 -0.0299,-0.0312 -0.0597,-0.0625 -0.0895,-0.0938 -0.0755,0.0721 -0.15096,0.14424 -0.1369,0.30983 m -71.437552,20.63753 c 0.07546,-0.072 0.150911,-0.14401 0.226383,-0.21601 -0.02987,-0.0312 -0.08406,-0.0912 -0.08611,-0.0895 -0.07958,0.0672 -0.154389,0.14001 -0.140277,0.30552 m 2.332644,-0.17117 c 0.06433,-0.0383 0.128656,-0.0766 0.192995,-0.11487 -0.06632,-0.0355 -0.14958,-0.11358 -0.194652,-0.0957 -0.05562,0.0221 -0.07949,0.1241 0.0016,0.21052 m 62.051289,-4.82398 c -0.0378,0.0625 -0.0756,0.12496 -0.11338,0.18744 0.0643,0.023 0.12867,0.046 0.19301,0.069 0.0109,-0.0927 0.0218,-0.18548 -0.0796,-0.25647 m 6.50563,-12.75638 c 0.0556,0.0143 0.11122,0.0286 0.16683,0.043 -0.0357,-0.0351 -0.0714,-0.0703 -0.16683,-0.043 m -18.55163,20.09232 c 0,0 0.017,0.0287 0,0 m -0.29178,0.54736 c 0,0 0.0287,-0.0171 0,0 m -62.441947,-7.6727 c 0,0 0.02916,-0.0174 0,0 z"
       id="path2"
       style="stroke-width:0.264583" />
    <path
       fill="#0a0368"
       opacity="1"
       stroke="none"
       d="m 50.001082,177.55899 c -0.0019,-31.28932 -0.0037,-62.57864 0.04368,-94.019473 0.09327,-0.146132 0.137302,-0.140738 0.255016,-0.05172 4.08397,0.203369 8.094273,0.323115 12.090283,0.554125 -0.09448,0.760201 -0.24456,1.409094 -0.244811,2.058045 -0.01156,29.879373 -0.0085,59.758743 -0.02186,89.638123 -2.4e-4,0.5427 -0.177487,1.08533 -0.391049,1.62635 -1.08508,0.0803 -2.051256,0.1623 -3.141657,0.26123 -2.946016,-0.0109 -5.767808,-0.0388 -8.589594,-0.0667 z"
       id="path20"
       style="stroke-width:0.264583" />
    <path
       fill="#a2a2a7"
       opacity="1"
       stroke="none"
       d="m 94.434751,73.439188 c 4.148368,-0.01222 8.296709,-0.02442 12.565149,0.09964 0.29082,1.528458 0.46158,2.920621 0.5105,4.314716 -1.18378,0.004 -2.24573,0.0061 -3.3824,-0.06753 -1.37007,-0.01516 -2.66892,0.01003 -3.95768,0.137345 -0.243857,0.0241 -0.592837,0.426379 -0.645027,0.701289 -0.240577,1.267246 -0.393287,2.551171 -0.595964,3.957108 1.651461,0.09603 3.464111,0.201433 5.342711,0.30829 0.0659,0.0013 0.19779,0.005 0.196,0.07127 -0.004,0.154601 -0.006,0.242927 -0.12934,0.355105 -1.89753,-0.0011 -3.67412,-0.0258 -5.489691,-0.139073 -0.45755,-0.152916 -0.875589,-0.269034 -1.294739,-0.273111 -2.106072,-0.02053 -4.212436,-0.01249 -6.318693,-0.01302 -0.793129,-2.01e-4 -1.586257,0.0035 -2.477733,0.0034 -0.295088,-0.0037 -0.491813,-0.0053 -0.68964,-0.108617 0.749642,-1.646719 0.935506,-3.252822 0.637358,-4.924417 0.739103,-0.0074 1.361326,-0.01434 2.107057,-0.01148 0.7738,0.01082 1.425268,-0.01267 2.074132,0.01834 1.117978,0.05345 1.575139,-0.474202 1.535573,-1.568598 -0.03444,-0.952162 0.0054,-1.907014 0.01243,-2.860678 z"
       id="path28"
       style="stroke-width:0.264583" />
    <path
       fill="#a2a2a7"
       opacity="1"
       stroke="none"
       d="m 69.845353,38.324848 c 1.784064,0.387529 3.577598,0.738796 5.342509,1.199668 0.281284,0.07345 0.679281,0.737685 0.59177,0.955 -0.15071,0.37423 -0.605769,0.797997 -0.995014,0.87104 -1.068191,0.200465 -2.168554,0.229518 -3.325031,0.332552 0,0.682924 0,1.313903 0,2.033675 0.952468,0 1.82291,0.04019 2.687957,-0.01093 0.924983,-0.05467 1.626976,0.21604 1.700284,1.208191 0.07693,1.041058 -0.722638,1.335061 -1.562251,1.400654 -0.819814,0.06404 -1.648552,0.01392 -2.636168,0.01392 0.116192,1.077613 0.208328,1.932141 0.315524,2.926265 0.84433,0 1.692727,-0.130368 2.472039,0.04548 0.526396,0.118779 0.955426,0.669057 1.428006,1.026324 -0.395906,0.500954 -0.696478,1.234932 -1.211183,1.445514 -0.6859,0.280614 -1.538335,0.154149 -2.489964,0.213125 0.08755,0.892876 0.166147,1.694478 0.251859,2.568646 0.787662,0 1.48966,-0.149762 2.077805,0.04474 0.522957,0.172939 1.15026,0.659905 1.290293,1.137607 0.09179,0.313124 -0.515755,1.033881 -0.965321,1.251739 -0.560787,0.271748 -1.281205,0.214077 -2.167221,0.329078 0.09871,1.194141 0.200414,2.397503 0.297154,3.601257 0.146222,1.819418 0.08838,1.884812 -1.690368,1.867807 -0.572267,-0.0055 -1.144341,-0.03132 -1.842225,-0.195688 -0.125208,-1.879806 -0.124708,-3.611766 -0.12827,-5.351428 -0.004,-0.0077 0.01,0.0026 0.118097,2.64e-4 1.125109,0.05887 0.897581,-0.685572 0.933421,-1.267952 0.0466,-0.757229 -0.244607,-1.184158 -1.059609,-1.123987 -5.29e-4,2.65e-4 9e-5,-7.93e-4 7.94e-4,-0.119943 0.08,-1.191969 -0.281784,-2.285378 0.87988,-3.18248 0.742397,-0.573331 0.09209,-1.858415 -0.877184,-1.992074 -0.0036,0.003 0.0021,-0.0043 2.65e-4,-0.125714 0.07947,-1.065189 -0.149103,-2.219802 0.315574,-2.90271 0.67587,-0.993291 0.610168,-1.629883 0.01773,-2.537878 -0.513371,-0.786823 -0.74091,-1.674653 0.277357,-2.375857 0.20347,-0.140103 0.416343,-0.478888 0.391822,-0.700247 -0.0961,-0.867534 -0.285528,-1.724734 -0.440283,-2.585773 z"
       id="path29"
       style="stroke-width:0.264583" />
    <path
       fill="#a2a2a7"
       opacity="1"
       stroke="none"
       d="m 101.55759,38.703305 c 1.91649,-0.285382 3.54953,0.466124 5.05624,1.4987 0.3789,0.259668 0.80587,1.011595 0.67822,1.307717 -0.16489,0.382466 -0.84093,0.624453 -1.3418,0.756682 -0.39281,0.103698 -0.85391,-0.05124 -1.41353,-0.103257 -0.12118,0.749986 -0.22968,1.421569 -0.38199,2.364269 0.74566,0 1.33836,-0.01394 1.93016,0.0034 0.8247,0.0241 1.33327,0.413022 1.35479,1.284747 0.0222,0.897716 -0.54491,1.257938 -1.32866,1.320433 -0.64855,0.05172 -1.3045,0.01058 -2.0545,0.01058 -0.0968,0.922335 -0.18631,1.776193 -0.29367,2.799699 0.79861,0.04622 1.5235,0.106196 2.24949,0.125595 0.89389,0.02389 1.43084,0.407339 1.42021,1.350645 -0.0112,0.990492 -0.67509,1.241446 -1.50824,1.263295 -0.26358,0.0069 -0.52978,-0.0013 -0.79174,-0.03028 -1.6919,-0.186783 -1.64011,-0.186042 -1.74354,1.454475 -0.0593,0.941157 0.26481,1.294286 1.18073,1.240785 0.56969,-0.03327 1.22785,-0.147754 1.69398,0.08254 0.48474,0.23948 1.09227,0.858163 1.08071,1.296102 -0.0113,0.429373 -0.69107,1.12886 -1.1538,1.197864 -0.92533,0.137993 -1.90284,-0.07388 -2.99935,-0.151199 -0.22146,1.668483 -0.43169,3.252269 -0.65558,4.939048 -0.55525,0 -1.02857,0 -1.62751,-0.132291 -0.13129,-1.361478 -0.16388,-2.591494 -0.12572,-3.819314 0.011,-0.353652 0.14139,-0.770458 0.36228,-1.038714 0.79521,-0.965714 0.6157,-1.754315 -0.004,-2.800956 -0.35258,-0.595826 -0.28513,-1.810478 0.11269,-2.389563 0.53874,-0.784217 0.84409,-1.946503 0.11244,-2.669469 -0.87466,-0.864296 -0.86177,-2.33812 0.0275,-3.145739 0.63475,-0.576448 0.60737,-1.853409 -0.0515,-2.399237 -0.78943,-0.654034 -0.80054,-1.748456 -0.0944,-2.403935 0.27038,-0.250971 0.5364,-0.665007 0.54262,-1.00947 0.0132,-0.732732 -0.14502,-1.468552 -0.23298,-2.203109 z"
       id="path30"
       style="stroke-width:0.264583" />
    <path
       fill="#cecfcc"
       opacity="1"
       stroke="none"
       d="m 96.24473,62.741211 c -0.999298,0 -1.9986,0 -3.189667,0 0.112493,-1.872099 0.216014,-3.595076 0.322646,-5.369666 -0.721889,-0.145716 -1.310335,-0.317039 -1.90954,-0.372837 -0.847963,-0.07897 -1.335828,-0.464725 -1.268666,-1.336419 0.07016,-0.910484 0.713232,-1.111784 1.503574,-1.087514 0.566123,0.01738 1.1332,0.0034 1.844648,0.0034 0.126511,-0.865947 0.2417,-1.65436 0.364511,-2.494979 -0.991007,-0.146507 -1.861933,-0.13054 -2.599541,-0.43625 -0.475279,-0.19698 -0.980697,-0.840399 -1.036977,-1.333471 -0.03349,-0.293351 0.769737,-0.693512 1.215316,-1.020405 0.08567,-0.06286 0.257559,-0.0067 0.389658,-0.008 2.562489,-0.02477 2.580624,-0.04756 2.13896,-2.777212 -0.877554,-0.104124 -1.825913,-0.07653 -2.661798,-0.369668 -0.482262,-0.169129 -0.782873,-0.856236 -1.165246,-1.310203 0.469601,-0.364255 0.896829,-0.822039 1.423371,-1.060606 0.364585,-0.165182 0.866153,-0.02882 1.306494,-0.02588 1.895943,0.01265 1.895943,0.01281 1.627968,-2.019287 -1.002676,-0.117954 -2.051545,-0.163277 -3.057832,-0.394205 -0.470022,-0.107866 -0.85765,-0.574787 -1.282626,-0.878967 0.285787,-0.332288 0.510225,-0.838793 0.868577,-0.964978 1.188283,-0.41842 2.424787,-0.699876 3.75603,-0.927857 0.198257,0.622268 0.421534,1.162627 0.336679,1.649259 -0.135175,0.775224 -0.113665,1.219129 0.727411,1.640814 0.3265,0.163695 0.39377,1.76816 0.23593,1.829223 -1.356559,0.524827 -0.766422,1.673796 -1.031304,2.629927 1.012984,0.142494 1.354914,0.78846 1.146754,1.689097 -0.123,0.532185 -0.36337,1.053221 -0.637669,1.529323 -0.213342,0.370322 -0.815922,0.685133 -0.790374,0.985946 0.04133,0.486376 0.449987,0.944719 0.715687,1.407912 0.233979,0.407889 0.601256,0.780174 0.698416,1.215345 0.12176,0.545271 0.0279,1.138695 0.0287,1.713042 0.002,0.0016 -0.002,-0.0016 -0.10866,-0.0021 -0.43792,0.03828 -0.769014,0.077 -1.170715,0.123986 0.178001,0.81162 0.10088,1.821022 0.539064,2.155619 0.755821,0.577157 0.749861,1.192321 0.742711,1.932488 -0.0118,1.228304 -0.0154,2.45669 -0.0225,3.685039 z"
       id="path31"
       style="stroke-width:0.264583" />
    <path
       fill="#cecfcc"
       opacity="1"
       stroke="none"
       d="m 64.497129,62.741759 c -0.984901,-0.0055 -1.364049,-0.455758 -1.337963,-1.476767 0.02779,-1.088152 -0.162907,-2.181886 -0.270084,-3.409106 -0.512726,0 -0.973183,-0.01937 -1.431235,0.0056 -0.436237,0.02376 -0.869085,0.103817 -1.304951,0.141441 -0.976495,0.08428 -1.606995,-0.451805 -1.59544,-1.340541 0.01037,-0.797496 0.590798,-1.337167 1.524127,-1.292971 0.69824,0.03307 1.399304,0.0065 2.207119,0.0065 0,-0.993536 0,-1.881952 0,-2.800334 -0.803378,0.04791 -1.538615,0.09847 -2.274585,0.133935 -0.937226,0.04516 -1.533211,-0.581162 -1.450888,-1.334399 0.05158,-0.471972 0.848939,-0.894715 1.364676,-1.265923 0.177223,-0.127551 0.516144,-0.04997 0.77943,-0.03506 1.161577,0.06577 1.463239,-0.493435 1.4662,-1.610114 0.0032,-1.190741 -0.508575,-1.442357 -1.51496,-1.310529 -0.259998,0.03406 -0.603731,0.108435 -0.778668,-0.0172 -0.491887,-0.353234 -0.915871,-0.80102 -1.366631,-1.211521 0.443711,-0.46219 0.826291,-1.22872 1.34203,-1.332318 1.926314,-0.386929 1.942682,-0.305443 1.599186,-2.429864 -0.563292,0 -1.184029,0.0952 -1.755015,-0.03231 -0.40395,-0.09021 -0.878396,-0.41289 -1.054799,-0.765244 -0.103304,-0.206354 0.227584,-0.842179 0.516628,-0.995545 1.153729,-0.612156 2.367656,-1.110869 3.682381,-1.552048 0.286623,0.663998 0.549302,1.221732 0.588296,1.794692 0.04733,0.695323 0.0586,1.244127 0.870958,1.55388 0.664527,0.253383 0.686697,1.771208 0.01304,1.937961 -1.541688,0.381619 -1.069988,1.404993 -0.884904,2.237865 0.558662,0.436832 1.156692,0.898609 1.304231,1.475584 0.279993,1.094922 0.05755,2.11674 -1.33986,2.303941 0.07791,1.007562 -0.07778,1.90351 0.962649,2.595163 0.369763,0.245814 0.263406,2.093415 0.08361,2.142392 -1.670981,0.455216 -1.005046,1.725925 -1.201295,2.755601 0.528544,0.105907 0.983739,0.197117 1.609669,0.322532 -0.120483,1.640089 -0.236723,3.22239 -0.352957,4.804693 z"
       id="path32"
       style="stroke-width:0.264583" />
    <path
       fill="#ccccc9"
       opacity="1"
       stroke="none"
       d="m 66.902887,72.586674 c -4.967139,0 -9.934281,0 -14.922912,0 -0.495655,-2.031508 -0.04005,-2.827938 1.858928,-3.740986 3.073844,-1.477954 6.311633,-1.74702 9.64175,-1.586418 1.054079,0.05084 2.112367,0.01445 3.292962,0.144886 0.125915,1.8121 0.127592,3.497308 0.129272,5.182518 z"
       id="path33"
       style="stroke-width:0.264583" />
    <path
       fill="#a2a2a7"
       opacity="1"
       stroke="none"
       d="m 106.09524,183.03246 c -1.30844,0.0533 -2.61667,0.14505 -3.92536,0.15219 -3.029694,0.0165 -6.0596,-0.008 -9.225259,-0.12152 -0.135837,-0.66538 -0.135837,-1.22504 -0.135837,-1.9178 -0.124783,-0.0881 -0.423101,-0.29865 -0.86382,-0.60974 1.338509,-0.63961 1.635937,-1.31334 -0.304059,-2.10839 0.95196,-0.14228 1.396839,-0.26319 1.842579,-0.26652 2.801226,-0.0208 5.602872,10e-4 8.403756,-0.037 0.41503,-0.006 0.82677,-0.25347 1.3623,-0.41612 3.32332,0.0184 6.5244,0.0637 9.64935,0.19755 -1.16244,0.13901 -2.25177,0.15451 -3.33436,0.24793 -1.66102,0.14332 -3.31741,0.34024 -4.97577,0.51442 -0.016,0.12717 -0.0319,0.25436 -0.0479,0.38155 0.68383,0.36122 1.36765,0.72242 2.33033,1.23093 -1.57742,0.76349 -1.29158,1.74105 -0.77593,2.7525 z"
       id="path34"
       style="stroke-width:0.264583" />
    <path
       fill="#ccccc9"
       opacity="1"
       stroke="none"
       d="m 65.572015,183.16446 c -2.374323,0.006 -4.748657,0.0212 -7.122959,0.0171 -2.77136,-0.005 -5.230757,-1.0291 -7.513754,-2.47575 -0.459981,-0.29148 -0.631148,-1.03873 -0.822254,-1.67873 0.853716,-0.88473 1.785507,-0.91714 2.792233,-0.90469 3.51958,0.0436 7.04002,0.0174 10.682155,0.0151 1.183214,0.002 2.244402,0.007 3.287628,0.10949 -0.681363,0.35875 -1.344758,0.62049 -2.263304,0.98289 0.859009,0.31505 1.403395,0.5147 2.206807,0.80936 -0.64412,0.32746 -1.033809,0.52557 -1.246552,0.63372 0,0.92753 0,1.70955 0,2.4916 z"
       id="path35"
       style="stroke-width:0.264583" />
    <path
       fill="#ecebe9"
       opacity="1"
       stroke="none"
       d="m 99.440196,62.534683 c -0.726587,0.08077 -1.453156,0.161544 -2.270006,0.140022 -0.0806,-1.271825 -0.067,-2.441347 -0.0637,-3.610898 0.001,-0.379971 0.13023,-0.906664 -0.066,-1.114719 -0.86169,-0.913804 -0.49917,-2.080818 -0.7775,-3.104565 0,0 0.003,0.0033 0.11087,-5.29e-4 0.29247,-0.150328 0.64322,-0.306388 0.63539,-0.441733 -0.0467,-0.807963 -0.0774,-1.640287 -0.30428,-2.408097 -0.24803,-0.839599 -0.57159,-1.480415 0.0591,-2.418376 0.45458,-0.676071 0.68093,-2.146377 0.26688,-2.640645 -1.067451,-1.274199 -0.53831,-2.210628 -0.005,-3.353186 0.21035,-0.450437 0.32954,-1.235115 0.0836,-1.554824 -0.90809,-1.180555 -0.78169,-2.513359 -0.85108,-3.834302 1.16366,0.08469 2.327319,0.16937 3.605473,0.382865 -0.0553,1.404866 -0.26071,2.677687 -0.37706,3.958601 -0.0455,0.500639 0.1032,1.020276 0.17445,1.529728 0.0573,0.409689 0.18819,0.817137 0.18766,1.225457 -0.002,1.708436 -0.27201,3.35574 -0.0673,5.142326 0.241217,2.105617 -0.15248,4.340082 0.10192,6.571411 0.205627,1.803529 -0.27012,3.684746 -0.443607,5.531501 z"
       id="path36"
       style="stroke-width:0.264583" />
    <path
       fill="#1e2650"
       opacity="1"
       stroke="none"
       d="m 112.97502,177.81653 c -3.20108,-0.0453 -6.40216,-0.0905 -9.84691,-0.12719 -4.569791,0.006 -8.895908,0.004 -13.326871,-0.0194 -0.388914,-0.006 -0.672979,0.008 -1.074402,0.01 -0.747231,0.005 -1.377111,0.023 -2.12407,0.0258 -0.827799,-0.009 -1.538528,-0.003 -2.369566,-0.0235 -7.001237,-0.043 -13.882163,-0.059 -20.684667,-0.15039 0.557927,-0.10815 1.037381,-0.16813 1.516957,-0.16916 4.845135,-0.0105 9.690301,-0.0113 14.659054,-0.012 3.656423,7.9e-4 7.189243,-10e-4 10.845906,-10e-4 1.893149,-5.3e-4 3.662455,-0.003 5.555709,-0.003 5.14696,0.003 10.1711,-0.055 15.19228,0.0415 1.40876,0.0271 1.64609,-0.43568 1.64462,-1.717 -0.0344,-29.96187 -0.0249,-59.92379 -0.0376,-89.885692 -2.6e-4,-0.692383 -0.16345,-1.384702 -0.17559,-2.084287 0.19386,-0.08676 0.31268,-0.166278 0.49152,-0.250971 0.06,-0.0052 0.18047,-0.0013 0.18047,-0.0013 0.008,1.057114 0.0234,2.114236 0.0235,3.171349 0.001,29.832571 0.001,59.665131 -5e-5,89.497691 -3e-5,0.48429 -0.0162,0.96858 -0.12235,1.54162 -0.18643,0.0921 -0.2699,0.11498 -0.34797,0.15757 z"
       id="path37"
       style="stroke-width:0.264583" />
    <path
       fill="#a2a2a7"
       opacity="1"
       stroke="none"
       d="m 94.416937,67.290518 c 3.823473,-0.0016 7.646943,-0.003 11.556493,0.160665 0.0236,0.714346 -0.0702,1.262034 -0.095,1.812833 -0.0498,1.106384 -0.0619,2.21448 -0.0896,3.321864 -3.79799,0.0045 -7.59598,0.0089 -11.502949,-0.106436 -0.02898,-1.809515 0.05102,-3.49922 0.131006,-5.188926 z"
       id="path38"
       style="stroke-width:0.264583" />
    <path
       fill="#efefec"
       opacity="1"
       stroke="none"
       d="m 84.35351,177.70921 c 0.710729,-0.006 1.421458,-0.0125 2.241021,0.0653 0.111871,0.17654 0.114908,0.26894 0.005,0.36391 -0.640464,0.009 -1.168,0.0153 -1.817201,0.016 -0.687919,-0.004 -1.256479,-0.0318 -1.819277,0.0129 -0.223637,0.0178 -0.611,0.18984 -0.614805,0.30211 -0.0081,0.23984 0.137113,0.53288 0.31219,0.71512 0.13117,0.13654 0.407099,0.13402 0.712142,0.21971 -0.715645,0.60416 -1.061466,0.8961 -1.493925,1.26119 0.425048,0.29735 0.755309,0.5284 1.078503,0.75448 -0.266269,0.45131 -0.496673,0.84182 -0.727078,1.23234 -0.46877,0.0804 -0.962353,0.29452 -1.401085,0.21308 -0.882012,-0.16368 -1.714706,-0.50173 -1.087652,-1.75818 -0.569523,0 -1.041434,0 -1.527249,0 0.373759,1.40681 -0.113477,2.04715 -1.546749,2.0607 -1.587299,0.015 -3.17483,0.005 -4.885086,-0.10418 -0.358021,-0.85613 -0.59322,-1.60256 -0.857618,-2.44168 0.510053,0 0.955781,0 1.401506,0 0.04507,-0.0981 0.09014,-0.19617 0.135204,-0.29428 -0.761775,-0.37636 -1.52355,-0.75274 -2.631969,-1.30037 1.18495,-0.11177 1.972644,-0.18605 2.760345,-0.26034 -1.835216,-0.92933 -3.792937,-0.50657 -5.696712,-0.61724 -1.06119,-0.005 -2.122379,-0.0101 -3.22699,-0.0876 0.347453,-0.10148 0.738269,-0.15492 1.129204,-0.15584 6.050645,-0.0142 12.101309,-0.0179 18.151933,-0.0376 0.468947,-0.002 0.937564,-0.10399 1.406334,-0.15956 z"
       id="path39"
       style="stroke-width:0.264583" />
    <path
       fill="#efefec"
       opacity="1"
       stroke="none"
       d="m 75.099795,67.283541 c 2.917005,-2.65e-4 5.834018,-7.94e-4 8.873562,0.123885 0.208208,1.807964 0.293886,3.491035 0.379555,5.174105 -1.139764,0.324575 -2.248561,0.575352 -3.343068,-0.236292 -0.206084,-0.152834 -0.732185,0.181102 -1.11546,0.2022 -1.462799,0.08047 -2.927591,0.124881 -4.461147,-0.0062 -0.157491,-1.878558 -0.245462,-3.56811 -0.333442,-5.257654 z"
       id="path40"
       style="stroke-width:0.264583" />
    <path
       fill="#ccccc9"
       opacity="1"
       stroke="none"
       d="m 53.407024,73.416331 c 3.179079,-0.0105 6.358157,-0.02101 9.661453,0.09803 0.208434,1.464397 0.292658,2.799273 0.267078,4.132095 -0.757867,0.06784 -1.405307,0.190567 -2.054098,0.198139 -2.361411,0.0276 -4.72327,0.01669 -7.20063,0.01566 -0.656158,-0.0019 -1.196644,0.0011 -1.850284,0.0024 -0.565772,-0.0041 -1.018397,-0.0067 -1.46908,-0.113874 0.499396,-0.501099 0.996847,-0.897667 1.494292,-1.294235 0.08151,0.07834 0.163023,0.156702 0.244536,0.235055 0.302242,-1.091051 0.604486,-2.182103 0.906733,-3.273144 z"
       id="path41"
       style="stroke-width:0.264583" />
    <path
       fill="#898a8a"
       opacity="1"
       stroke="none"
       d="m 113.43581,83.323476 c -0.0139,0.124825 -0.13435,0.120859 -0.25889,0.08232 -0.16865,-0.06604 -0.21275,-0.09353 -0.29282,-0.212841 -0.45302,-0.161547 -0.86964,-0.288333 -1.28722,-0.291568 -2.37556,-0.01844 -4.75134,-0.0074 -7.12705,-0.0063 0,0 -0.13185,-0.0035 -0.21129,-0.108747 -0.0997,-0.694007 -0.14178,-1.283044 -0.13553,-1.871559 0.0108,-1.017831 0.0515,-2.035334 0.0797,-3.05298 1.06195,-0.0021 2.1239,-0.0042 3.43178,-0.003 1.25115,-0.0182 2.25634,-0.05482 3.26159,-0.05663 0.85038,-0.0016 1.70085,0.03725 2.55127,0.05819 8e-4,1.77944 0.002,3.558869 -0.0116,5.463128 z"
       id="path42"
       style="stroke-width:0.264583" />
    <path
       fill="#efefec"
       opacity="1"
       stroke="none"
       d="m 72.707266,73.38388 c 3.275275,-0.0039 6.550544,-0.0077 9.947413,0.114914 0.121602,1.318791 0.121602,2.511088 0.121602,3.472034 0.581232,0.370869 0.941512,0.600755 1.188146,0.846114 -0.652132,0.02326 -1.190625,0.03101 -1.852544,0.03466 -3.385161,-0.0057 -6.646881,-0.0073 -9.908664,-0.112961 0.167979,-1.520942 0.33601,-2.937854 0.504047,-4.354756 z"
       id="path43"
       style="stroke-width:0.264583" />
    <path
       fill="#dfe0de"
       opacity="1"
       stroke="none"
       d="m 72.58446,73.381181 c -0.04523,1.419601 -0.213262,2.836513 -0.505539,4.366061 -1.151134,0.112647 -2.178024,0.112647 -3.05122,0.112647 -0.75156,1.608034 -0.404699,3.437331 -2.029855,4.401685 -0.112524,0.06677 -0.06289,0.406839 -0.210584,0.624655 -1.423477,-0.09467 -2.725047,-0.194197 -4.026614,-0.293714 -0.01857,-0.129466 -0.03715,-0.25894 -0.05573,-0.388414 0.312084,-0.189854 0.615675,-0.524912 0.937765,-0.543756 1.217433,-0.07122 1.467186,-0.939842 1.643997,-1.861418 0.138017,-0.719378 0.18992,-1.455282 0.393126,-2.187932 1.331902,0.19776 1.762032,-0.483206 1.730811,-1.5436 -0.02627,-0.892879 -0.169214,-1.782337 -0.260514,-2.673294 1.77052,-0.0052 3.541035,-0.01042 5.434354,-0.01291 z"
       id="path44"
       style="stroke-width:0.264583" />
    <path
       fill="#efefec"
       opacity="1"
       stroke="none"
       d="m 65.051923,38.702228 c 0.631802,-0.08478 1.263597,-0.169561 2.004727,-0.128635 0.109506,8.064539 0.109683,16.003368 0.109855,23.942198 -0.284086,0.0016 -0.568177,0.0029 -0.974085,-0.08968 -0.240442,-0.432091 -0.559093,-0.876665 -0.44505,-1.090755 0.710652,-1.334093 0.282411,-2.429544 -0.324133,-3.68395 -0.339275,-0.701656 -0.311132,-1.915956 0.0893,-2.569945 0.811601,-1.325536 0.876885,-2.154142 -0.345416,-3.065889 0.211457,-0.974021 -0.277466,-2.065559 0.784669,-2.930477 0.328229,-0.26729 0.26107,-1.572757 -0.0994,-2.023779 -0.884761,-1.107022 -0.88156,-1.975932 -0.07572,-3.09122 0.502126,-0.694936 0.808934,-1.569188 -0.341884,-2.154409 -0.219525,-0.111631 -0.351102,-0.561764 -0.371809,-0.866027 -0.05077,-0.745937 -0.01312,-1.497896 -0.01106,-2.247434 z"
       id="path45"
       style="stroke-width:0.264583" />
    <path
       fill="#c4c3c6"
       opacity="1"
       stroke="none"
       d="m 99.539413,62.544602 c 0.0743,-1.856674 0.550017,-3.737891 0.34439,-5.54142 -0.2544,-2.231329 0.139287,-4.465794 -0.10192,-6.571411 -0.20467,-1.786586 0.0652,-3.43389 0.0673,-5.142326 5.3e-4,-0.40832 -0.13039,-0.815768 -0.18767,-1.225457 -0.0712,-0.509453 -0.219927,-1.029089 -0.17444,-1.529728 0.11635,-1.280914 0.32176,-2.553735 0.50001,-3.949944 0.482677,-0.08831 0.956897,-0.05648 1.500787,0.04717 0.15765,0.806376 0.3159,1.542196 0.30266,2.274928 -0.006,0.344463 -0.27223,0.758499 -0.54261,1.00947 -0.70618,0.655478 -0.69506,1.749901 0.0944,2.403935 0.65883,0.545827 0.6862,1.822789 0.0515,2.399236 -0.8893,0.80762 -0.9022,2.281444 -0.0275,3.14574 0.73164,0.722966 0.42629,1.885251 -0.11244,2.669468 -0.39782,0.579086 -0.46527,1.793738 -0.1127,2.389564 0.61936,1.046641 0.79887,1.835242 0.004,2.800956 -0.2209,0.268255 -0.35128,0.685061 -0.36229,1.038714 -0.0382,1.22782 -0.006,2.457836 0.015,3.799869 -0.37634,0.07229 -0.76761,0.03172 -1.258107,-0.01876 z"
       id="path46"
       style="stroke-width:0.264583" />
    <path
       fill="#dfe0de"
       opacity="1"
       stroke="none"
       d="m 64.957972,38.693515 c 0.09188,0.758251 0.05424,1.51021 0.105008,2.256147 0.02072,0.304263 0.152284,0.754396 0.371809,0.866027 1.150818,0.585221 0.84401,1.459473 0.341884,2.154409 -0.805842,1.115288 -0.809043,1.984198 0.07572,3.09122 0.360466,0.451022 0.427625,1.756489 0.0994,2.023779 -1.062135,0.864918 -0.573212,1.956456 -0.784669,2.930477 1.222301,0.911747 1.157017,1.740353 0.345416,3.065889 -0.400429,0.653989 -0.428572,1.868289 -0.0893,2.569945 0.606544,1.254406 1.034785,2.349857 0.324133,3.68395 -0.114043,0.21409 0.204608,0.658664 0.338521,1.089628 -0.450302,0.176932 -0.915903,0.26093 -1.485133,0.330851 0.0126,-1.596382 0.128845,-3.178683 0.249328,-4.818771 -0.62593,-0.125415 -1.081125,-0.216625 -1.609669,-0.322533 0.196249,-1.029676 -0.469686,-2.300385 1.201295,-2.755601 0.179795,-0.04898 0.286152,-1.896578 -0.08361,-2.142392 -1.040431,-0.691652 -0.88474,-1.5876 -0.962649,-2.595163 1.39741,-0.1872 1.619853,-1.209019 1.33986,-2.303941 -0.147539,-0.576974 -0.745569,-1.038752 -1.304231,-1.475584 -0.185084,-0.832871 -0.656784,-1.856245 0.884904,-2.237864 0.673653,-0.166754 0.651483,-1.684579 -0.01304,-1.937962 -0.812358,-0.309753 -0.823632,-0.858557 -0.870958,-1.553879 -0.03899,-0.572961 -0.301673,-1.130695 -0.486558,-1.793071 0.06817,-0.224454 0.157683,-0.351012 0.333404,-0.562433 0.200448,-0.08549 0.314693,-0.08613 0.428934,-0.08676 0.385416,0.171641 0.770835,0.343273 1.250209,0.523629 z"
       id="path47"
       style="stroke-width:0.264583" />
    <path
       fill="#969698"
       opacity="1"
       stroke="none"
       d="m 113.54212,77.84173 c -0.94518,-0.0024 -1.79565,-0.0411 -2.64603,-0.03957 -1.00525,0.0019 -2.01044,0.03841 -3.13976,0.0547 -0.29485,-1.397413 -0.46561,-2.789576 -0.63411,-4.293552 1.94244,-0.134504 3.88463,-0.111112 5.82216,-0.195014 1.45021,-0.0628 2.53826,0.565856 2.81621,1.796854 0.25851,1.144833 -0.52422,2.124474 -2.21847,2.67658 z"
       id="path49"
       style="stroke-width:0.264583" />
    <path
       fill="#969698"
       opacity="1"
       stroke="none"
       d="m 105.91254,72.599398 c -0.096,-1.120902 -0.0838,-2.228998 -0.0341,-3.335382 0.0248,-0.550799 0.11852,-1.098487 0.19626,-1.766922 2.00077,0.411935 4.03705,0.805418 5.95799,1.512318 2.01641,0.742032 2.16692,1.245878 1.84689,3.603512 -2.59692,0 -5.22017,0 -7.96706,-0.01352 z"
       id="path50"
       style="stroke-width:0.264583" />
    <path
       fill="#969698"
       opacity="1"
       stroke="none"
       d="m 112.89889,177.90513 c 0.1542,-0.13118 0.23767,-0.15411 0.38753,-0.13238 0.37402,2.26845 0.18601,2.77952 -1.85006,3.59888 -1.65816,0.66727 -3.41412,1.09154 -5.23392,1.64218 -0.62285,-0.9928 -0.90869,-1.97036 0.66873,-2.73385 -0.96268,-0.50851 -1.6465,-0.86971 -2.33033,-1.23093 0.016,-0.12719 0.0319,-0.25438 0.0479,-0.38155 1.65836,-0.17418 3.31475,-0.3711 4.97577,-0.51442 1.08259,-0.0934 2.17192,-0.10892 3.33436,-0.24793 z"
       id="path51"
       style="stroke-width:0.264583" />
    <path
       fill="#dadbd5"
       opacity="1"
       stroke="none"
       d="m 66.875064,178.24689 c 1.92174,0.0137 3.879461,-0.40912 5.714677,0.52021 -0.787702,0.0743 -1.575395,0.14858 -2.760345,0.26034 1.108419,0.54763 1.870194,0.92401 2.631969,1.30037 -0.04506,0.0981 -0.09013,0.1962 -0.135205,0.29428 -0.445725,0 -0.891452,0 -1.401505,0 0.264398,0.83912 0.499596,1.58555 0.73344,2.43871 -1.946827,0.11003 -3.892293,0.11327 -5.961917,0.11011 -0.124163,-0.78849 -0.124163,-1.57052 -0.124163,-2.49804 0.212743,-0.10815 0.602432,-0.30627 1.246552,-0.63372 -0.803412,-0.29466 -1.347798,-0.49431 -2.206807,-0.80936 0.918546,-0.3624 1.581941,-0.62414 2.263304,-0.9829 z"
       id="path52"
       style="stroke-width:0.264583" />
    <path
       fill="#b7b9b9"
       opacity="1"
       stroke="none"
       d="m 89.906077,177.69101 c 4.326125,0.002 8.652242,0.005 13.099783,0.0252 -0.29185,0.15402 -0.70359,0.40185 -1.11862,0.4075 -2.800884,0.038 -5.60253,0.0161 -8.403756,0.037 -0.44574,0.003 -0.890619,0.12423 -1.842579,0.26652 1.939996,0.79504 1.642568,1.46878 0.304059,2.10838 0.440719,0.3111 0.739037,0.52168 0.86382,0.60975 0,0.69276 0,1.25241 0.01281,1.90581 -1.403337,0.0994 -2.819475,0.10499 -4.360336,0.004 0.04107,-0.9106 0.725498,-1.75713 -0.321847,-2.46545 -0.04343,-0.0294 -0.05473,-0.20982 -0.01632,-0.24154 0.936207,-0.7728 -0.123756,-1.46418 0.01942,-2.20012 0.306239,-0.005 0.510191,-0.005 0.798028,-0.0133 0.37778,-0.15255 0.671674,-0.2981 0.965558,-0.44367 z"
       id="path53"
       style="stroke-width:0.264583" />
    <path
       fill="#192660"
       opacity="1"
       stroke="none"
       d="m 156.89139,171.51924 c -0.025,0.0723 -0.0636,0.13638 -0.16072,0.22656 -0.0563,-0.53708 -0.0777,-1.10846 -0.0777,-1.67984 -0.002,-31.27001 -0.001,-62.54003 -0.004,-93.810041 -8e-5,-0.968651 -0.0319,-1.937303 -0.0329,-3.02908 0.0966,0.599874 0.17722,1.322869 0.25706,2.280166 -0.004,31.984205 -0.006,63.734105 -0.008,95.484025 0,0.17607 0.017,0.35214 0.0261,0.52821 z"
       id="path54"
       style="stroke-width:0.264583" />
    <path
       fill="#1e2650"
       opacity="1"
       stroke="none"
       d="m 163.41637,73.631837 c 0.0215,0.306683 0.0619,0.613367 0.0619,0.920051 -2.6e-4,32.421772 -0.004,64.843542 -0.0875,97.385882 -0.0809,0.12056 -0.19056,0.12031 -0.18946,-0.004 7.9e-4,-32.84946 2.5e-4,-65.57491 0.0536,-98.300656 0.0538,-2.65e-4 0.16144,-0.0016 0.16144,-0.0016 z"
       id="path55"
       style="stroke-width:0.264583" />
    <path
       fill="#dadbd5"
       opacity="1"
       stroke="none"
       d="m 67.026088,72.589968 c -0.124881,-1.688504 -0.126558,-3.373712 -0.128537,-5.182404 1.591545,-0.122626 3.183398,-0.121772 4.901202,0.0028 -0.04798,1.806244 -0.221919,3.488772 -0.395856,5.171291 -1.417873,0.0039 -2.835746,0.0078 -4.376809,0.0083 z"
       id="path56"
       style="stroke-width:0.264583" />
    <path
       fill="#cecfcc"
       opacity="1"
       stroke="none"
       d="m 68.514263,62.699865 c -0.237961,-0.009 -0.475929,-0.01794 -0.768347,-0.220255 0.116054,-2.193087 0.305634,-4.191543 0.442674,-6.193597 0.03141,-0.458761 -0.159914,-0.9285 -0.175498,-1.395632 -0.0319,-0.956286 -0.03141,-1.914594 -0.01098,-2.871364 0.01461,-0.683009 0.128895,-1.365631 0.117364,-2.04705 -0.01704,-1.007359 -0.220739,-2.023446 -0.134318,-3.017501 0.09686,-1.114137 0.547753,-2.174788 -0.189185,-3.282209 -0.242322,-0.364149 -0.233723,-1.133076 -0.0081,-1.52672 0.707353,-1.233969 0.423561,-2.445515 0.181951,-3.686032 0.358286,-0.01572 0.716574,-0.03145 1.189371,0.07214 0.06683,0.596926 0.05076,1.080296 -0.03494,1.550985 -0.19273,1.05859 -0.814517,2.228461 -0.5432,3.138934 0.436036,1.463247 0.382638,2.708251 -0.0069,4.139573 -0.155974,0.573056 -0.871368,1.923727 0.710793,2.187583 0,0 -0.0057,0.0073 -0.0041,0.115943 -0.193384,0.903026 -0.31097,1.726986 -0.601062,2.484922 -0.452024,1.18102 -0.235516,2.392423 0.599779,2.697218 0,0 -5.29e-4,0.0011 -0.0021,0.103396 0.0056,0.832112 0.01294,1.561825 0.02021,2.291535 0,0 -0.01402,-0.01034 -0.115271,0.0052 -0.298664,0.397843 -0.649451,0.773575 -0.66607,1.16355 -0.06084,1.427218 -0.01042,2.85918 -0.0019,4.289353 z"
       id="path60"
       style="stroke-width:0.264583" />
    <path
       fill="#192660"
       opacity="1"
       stroke="none"
       d="m 153.31407,183.15246 c 0.11984,0.68144 0.16562,1.41647 0.21142,2.1515 0.12478,0.0268 0.24956,0.0535 0.37434,0.0803 -0.19771,0.13639 -0.40284,0.39902 -0.5919,0.38791 -0.9462,-0.0556 -1.28109,0.61941 -1.37236,1.29556 -0.16258,1.20424 -0.85425,1.78355 -1.91224,2.15029 -0.85704,0.29706 -1.65051,0.68834 -1.94843,1.69692 -0.0673,0.22778 -0.54695,0.30719 -0.7714,0.52292 -0.20717,0.19911 -0.52196,0.59282 -0.45312,0.72299 0.46234,0.87415 -0.096,0.91489 -0.71142,1.08523 -0.43919,0.12152 -0.79162,0.5694 -1.23039,0.67632 -0.59618,0.14532 -1.23783,0.10417 -2.06948,0.15608 0.37353,-0.70513 0.57802,-1.09112 0.78177,-1.57203 1.6894,-1.31121 3.37951,-2.5275 5.22249,-3.79638 0.2097,-0.13095 0.26657,-0.20934 0.32341,-0.28774 1.35775,-1.73875 2.7155,-3.4775 4.14731,-5.26987 z"
       id="path61"
       style="stroke-width:0.264583" />
    <path
       fill="#a2a2a7"
       opacity="1"
       stroke="none"
       d="m 70.417451,63.387038 c 1.929897,0 3.859784,0 5.902005,0 0,0.994989 0,1.934969 0,3.071796 -1.872213,0 -3.786299,0 -5.834674,-0.118324 -0.111966,-1.063371 -0.08965,-2.00842 -0.06733,-2.953472 z"
       id="path62"
       style="stroke-width:0.264583" />
    <path
       fill="#cecfcc"
       opacity="1"
       stroke="none"
       d="m 90.689106,77.840333 c -0.622218,0.0069 -1.244441,0.01384 -2.102456,0.01931 -0.955789,-0.01135 -1.675794,-0.02127 -2.344544,-0.09158 0.02986,-1.496026 0.0084,-2.931695 -0.01294,-4.367353 1.329473,-0.0056 2.658954,-0.01127 4.105669,0.117936 0.196257,1.530445 0.275265,2.926064 0.354274,4.32169 z"
       id="path63"
       style="stroke-width:0.264583" />
    <path
       fill="#dfe0de"
       opacity="1"
       stroke="none"
       d="m 84.475401,72.581634 c -0.208158,-1.683173 -0.293836,-3.366244 -0.377836,-5.171728 1.15366,-0.12668 2.305651,-0.130935 3.579411,-0.0073 0.03098,1.812866 -0.05979,3.497865 -0.150564,5.182864 -0.976178,-0.0013 -1.952345,-0.0024 -3.051011,-0.0038 z"
       id="path64"
       style="stroke-width:0.264583" />
    <path
       fill="#dfe0de"
       opacity="1"
       stroke="none"
       d="m 96.157,38.189685 c 0.17109,1.324052 0.0447,2.656856 0.95278,3.837411 0.24592,0.319709 0.12673,1.104387 -0.0836,1.554824 -0.53355,1.142558 -1.062691,2.078987 0.005,3.353186 0.41405,0.494268 0.18769,1.964574 -0.26688,2.640645 -0.63066,0.937961 -0.30709,1.578777 -0.0591,2.418376 0.22683,0.76781 0.25759,1.600134 0.30428,2.408097 0.008,0.135345 -0.34292,0.291405 -0.63703,0.440026 -0.10823,-0.5705 -0.0143,-1.163923 -0.13611,-1.709195 -0.0972,-0.435171 -0.464439,-0.807455 -0.698418,-1.215345 -0.2657,-0.463193 -0.674362,-0.921536 -0.715687,-1.407911 -0.02556,-0.300813 0.577032,-0.615625 0.790374,-0.985946 0.274298,-0.476102 0.514671,-0.997138 0.637671,-1.529324 0.20816,-0.900636 -0.13377,-1.546603 -1.146756,-1.689097 0.264882,-0.95613 -0.325255,-2.105099 1.031306,-2.629926 0.15783,-0.06106 0.0906,-1.665529 -0.235932,-1.829224 -0.841076,-0.421685 -0.862586,-0.865589 -0.727411,-1.640813 0.08485,-0.486632 -0.138422,-1.026991 -0.225835,-1.650439 0.368364,-0.194284 0.739127,-0.281371 1.211568,-0.365345 z"
       id="path65"
       style="stroke-width:0.264583" />
    <path
       fill="#dfe0de"
       opacity="1"
       stroke="none"
       d="m 67.869762,38.452916 c 0.34171,1.247106 0.625502,2.458652 -0.08185,3.692621 -0.225647,0.393644 -0.234246,1.162571 0.0081,1.52672 0.736938,1.107421 0.286046,2.168072 0.189185,3.282209 -0.08642,0.994055 0.117271,2.010142 0.134318,3.017501 0.01154,0.681419 -0.102772,1.364041 -0.117364,2.04705 -0.02045,0.95677 -0.02093,1.915078 0.01098,2.871364 0.01558,0.467132 0.206907,0.936871 0.175498,1.395632 -0.137041,2.002054 -0.32662,4.00051 -0.503637,6.125583 -0.120261,0.120766 -0.234021,0.116223 -0.433112,0.107939 -0.08551,-7.942574 -0.08568,-15.881403 -0.08389,-23.943116 0.20189,-0.125283 0.401801,-0.127688 0.701807,-0.123503 z"
       id="path66"
       style="stroke-width:0.264583" />
    <path
       fill="#cecfcc"
       opacity="1"
       stroke="none"
       d="m 53.28444,73.401482 c -0.179663,1.10589 -0.481907,2.196942 -0.784149,3.287993 -0.08151,-0.07835 -0.163023,-0.15671 -0.244536,-0.235055 -0.497445,0.396568 -0.994896,0.793136 -1.570061,1.367414 -0.278299,0.830667 -0.47888,1.483614 -0.679458,2.136571 0,-0.655153 0,-1.310304 0,-2.016617 -1.036418,-0.65663 -2.287675,-1.253808 -1.785411,-2.89828 0.36372,-1.190858 1.30696,-1.664854 3.22375,-1.666396 0.572423,-5.3e-4 1.144857,0.0061 1.839865,0.02437 z"
       id="path67"
       style="stroke-width:0.264583" />
    <path
       fill="#b7b9b9"
       opacity="1"
       stroke="none"
       d="m 94.294909,67.275296 c 0.04204,1.704928 -0.03796,3.394633 -0.132856,5.194668 -1.079135,0.113027 -2.143371,0.115715 -3.316094,0.0019 -0.02903,-1.806279 0.05041,-3.49604 0.129852,-5.185812 1.065692,-0.0087 2.13138,-0.0173 3.319098,-0.01074 z"
       id="path68"
       style="stroke-width:0.264583" />
    <path
       fill="#cecfcc"
       opacity="1"
       stroke="none"
       d="m 67.028009,73.38861 c 0.213397,0.896448 0.35633,1.785906 0.382611,2.678785 0.03122,1.060394 -0.398909,1.74136 -1.835277,1.540886 -0.762788,0.08734 -1.308071,0.173294 -1.909431,0.236074 -0.129506,-0.06301 -0.18433,-0.120576 -0.220552,-0.195855 -0.08423,-1.334865 -0.168449,-2.669741 -0.253434,-4.124127 1.237486,-0.126759 2.475738,-0.134003 3.836083,-0.135763 z"
       id="path69"
       style="stroke-width:0.264583" />
    <path
       fill="#ecebe9"
       opacity="1"
       stroke="none"
       d="m 71.525473,72.5827 c 0.05136,-1.68357 0.225301,-3.366098 0.396867,-5.171366 0.976313,-0.125007 1.954985,-0.127285 3.055557,-0.128682 0.209878,1.690433 0.297849,3.379985 0.384577,5.185521 -1.238967,0.115853 -2.476699,0.115715 -3.837001,0.114527 z"
       id="path70"
       style="stroke-width:0.264583" />
    <path
       fill="#b7b9b9"
       opacity="1"
       stroke="none"
       d="m 90.812611,77.85012 c -0.202515,-1.405413 -0.281522,-2.801032 -0.354145,-4.314732 1.247526,-0.126719 2.48865,-0.135369 3.853029,-0.120108 0.116232,0.977572 0.07639,1.932424 0.110829,2.884586 0.03957,1.094396 -0.417595,1.622044 -1.535573,1.568598 -0.648864,-0.03102 -1.300332,-0.0075 -2.07414,-0.01834 z"
       id="path71"
       style="stroke-width:0.264583" />
    <path
       fill="#ccccc9"
       opacity="1"
       stroke="none"
       d="m 90.854148,67.276339 c 0.04222,1.699477 -0.03722,3.389238 -0.13063,5.188934 -0.993108,0.114231 -1.97227,0.118525 -3.074263,0.121496 -0.03207,-1.686321 0.0587,-3.37132 0.150646,-5.179012 0.9783,-0.128836 1.955443,-0.134988 3.054247,-0.131418 z"
       id="path72"
       style="stroke-width:0.264583" />
    <path
       fill="#a2a2a7"
       opacity="1"
       stroke="none"
       d="m 100.72186,63.509672 c 1.70628,0 3.41255,0 5.22984,0 0,0.8744 0,1.815566 0,2.954491 -1.61488,0 -3.26703,0 -5.04936,-0.127836 -0.14695,-1.027441 -0.16371,-1.92705 -0.18048,-2.826655 z"
       id="path73"
       style="stroke-width:0.264583" />
    <path
       fill="#dfe0de"
       opacity="1"
       stroke="none"
       d="m 49.991679,80.083082 c 0.215135,-0.777634 0.415716,-1.430581 0.692068,-2.156717 0.528399,-0.07058 0.981024,-0.06797 1.55865,0.03486 0.811535,1.570083 1.498076,3.039946 2.21253,4.569561 -0.03928,0.0093 -0.231111,0.06668 -0.42708,0.0986 -1.170053,0.190598 -2.341052,0.375324 -3.559849,0.600247 -0.138417,0.0471 -0.203013,0.09253 -0.241893,0.174537 -0.04404,-0.0054 -0.08808,-0.01079 -0.191857,0.01323 -0.05886,-1.050274 -0.05799,-2.129956 -0.04257,-3.334316 z"
       id="path74"
       style="stroke-width:0.264583" />
    <path
       fill="#cecfcc"
       opacity="1"
       stroke="none"
       d="m 88.040204,178.15164 c -0.04088,0.73222 1.019082,1.4236 0.08287,2.19641 -0.03839,0.0317 -0.0271,0.21216 0.01633,0.24154 1.047345,0.70832 0.362921,1.55485 0.199051,2.45794 -0.992179,0.0491 -1.98628,-0.001 -3.079027,-0.18382 0.872839,-1.16234 -0.06135,-1.87287 -0.633924,-2.56571 0.419135,-0.29597 0.7184,-0.5073 0.906169,-0.6399 -0.247473,-0.59061 -0.43757,-1.0443 -0.627666,-1.49797 0.527527,-0.006 1.055064,-0.0127 1.807488,-0.0173 0.592826,0.004 0.960763,0.006 1.328698,0.009 z"
       id="path75"
       style="stroke-width:0.264583" />
    <path
       fill="#cecfcc"
       opacity="1"
       stroke="none"
       d="m 94.394257,66.47096 c -1.496041,0 -2.992083,0 -4.618694,0 0,-1.033737 0,-2.004367 0,-3.131838 1.481119,0 2.923133,0 4.49756,0.120528 0.128643,1.084122 0.124888,2.047716 0.121134,3.01131 z"
       id="path76"
       style="stroke-width:0.264583" />
    <path
       fill="#dfe0de"
       opacity="1"
       stroke="none"
       d="m 86.105406,73.389111 c 0.145153,1.447254 0.166558,2.882923 0.02101,4.386699 -0.794081,0.05397 -1.421214,0.03982 -2.04834,0.02566 -0.360281,-0.229888 -0.720561,-0.459774 -1.301793,-0.830643 0,-0.960946 0,-2.153243 0.0029,-3.467674 1.069435,-0.123312 2.135939,-0.124476 3.326202,-0.114044 z"
       id="path77"
       style="stroke-width:0.264583" />
    <path
       fill="#cecfcc"
       opacity="1"
       stroke="none"
       d="m 64.506535,66.48094 c -1.090102,0.0016 -2.184524,-0.05628 -3.269038,0.02238 -0.99808,0.07239 -1.345377,-0.304075 -1.238351,-1.269976 0.06138,-0.553932 0.01111,-1.120233 0.01111,-1.896282 1.481,0 2.857611,0 4.366522,0.108349 0.131447,1.084072 0.130595,2.0598 0.129749,3.035523 z"
       id="path78"
       style="stroke-width:0.264583" />
    <path
       fill="#dfe0de"
       opacity="1"
       stroke="none"
       d="m 84.782344,178.15447 c 0.311769,0.45933 0.501867,0.91302 0.74934,1.50363 -0.18777,0.1326 -0.487035,0.34393 -0.906169,0.6399 0.572574,0.69284 1.506762,1.40337 0.533535,2.52298 -0.0049,0.14388 -0.0081,0.19785 -0.139285,0.32341 -0.660029,0.0483 -1.192096,0.0249 -1.724168,0.002 -0.301315,-0.1431 -0.60262,-0.28618 -0.98471,-0.46147 0.149611,-0.42272 0.380016,-0.81323 0.646285,-1.26454 -0.323194,-0.22609 -0.653455,-0.45713 -1.078503,-0.75448 0.432459,-0.36509 0.77828,-0.65703 1.493925,-1.2612 -0.305044,-0.0857 -0.580972,-0.0832 -0.712142,-0.2197 -0.175077,-0.18224 -0.32032,-0.47528 -0.31219,-0.71512 0.0038,-0.11227 0.391168,-0.28432 0.614804,-0.30212 0.562798,-0.0447 1.131359,-0.0172 1.819278,-0.0129 z"
       id="path81"
       style="stroke-width:0.264583" />
    <path
       fill="#c4c3c6"
       opacity="1"
       stroke="none"
       d="m 84.233201,177.68206 c -0.348461,0.0827 -0.817078,0.18518 -1.286025,0.18671 -6.050624,0.0197 -12.101288,0.0234 -18.151933,0.0376 -0.390935,7.9e-4 -0.781751,0.0544 -1.251228,0.15852 -3.598714,0.0748 -7.119154,0.10107 -10.638734,0.0574 -1.006726,-0.0125 -1.938517,0.0199 -2.775738,0.80426 -0.114449,-0.37812 -0.132168,-0.75874 -0.139177,-1.25347 2.832503,-0.0863 5.654294,-0.0584 8.718262,-0.0256 1.2104,-0.01 2.178619,-0.0246 3.260937,-0.0219 0.576252,0.005 1.038402,-0.006 1.50055,-0.0184 6.880923,0.0159 13.761849,0.0318 20.763086,0.0749 z"
       id="path83"
       style="stroke-width:0.264583" />
    <path
       fill="#b7b9b9"
       opacity="1"
       stroke="none"
       d="m 69.283153,49.427312 c -1.580353,-0.142447 -0.86496,-1.493118 -0.708985,-2.066174 0.389567,-1.431322 0.442965,-2.676326 0.0069,-4.139573 -0.271317,-0.910473 0.35047,-2.080344 0.5432,-3.138934 0.08569,-0.470689 0.101769,-0.954059 0.142536,-1.549448 0.13779,-0.168516 0.282501,-0.219252 0.502862,-0.239165 0.230413,0.891868 0.419838,1.749068 0.51594,2.616602 0.02453,0.221359 -0.188351,0.560144 -0.391821,0.700247 -1.018268,0.701204 -0.790729,1.589034 -0.277358,2.375857 0.59244,0.907995 0.658141,1.544588 -0.01773,2.537878 -0.464677,0.682909 -0.236106,1.837521 -0.315574,2.90271 z"
       id="path84"
       style="stroke-width:0.264583" />
    <path
       fill="#a2a2a7"
       opacity="1"
       stroke="none"
       d="m 100.79951,35.553885 c 1.00023,0 2.00046,0 3.04576,0 0.0419,0.418327 0.088,0.671155 0.0893,0.924213 0.009,1.728991 0.002,1.733021 -1.77091,1.675519 -0.35179,-0.0114 -0.70332,-0.03164 -1.19932,-0.15893 -0.15119,-0.887679 -0.15801,-1.664242 -0.16484,-2.440802 z"
       id="path85"
       style="stroke-width:0.264583" />
    <path
       fill="#cecfcc"
       opacity="1"
       stroke="none"
       d="m 63.8177,38.169992 c -0.224178,5.29e-4 -0.338423,0.0011 -0.538411,0.0054 -2.199523,-0.143912 -0.560266,-1.680768 -1.414473,-2.544003 1.274038,0 2.129015,0 2.971488,0 0.457234,1.924132 0.323821,2.282952 -1.018604,2.538577 z"
       id="path86"
       style="stroke-width:0.264583" />
    <path
       fill="#ecebe9"
       opacity="1"
       stroke="none"
       d="m 64.626315,66.485914 c -0.118933,-0.980696 -0.118081,-1.956424 -0.127466,-3.038258 0.252992,-0.115069 0.521721,-0.162647 0.778468,-0.126084 0.959974,0.136718 2.001231,0.02225 1.929646,1.60977 -0.06512,1.444104 -0.761622,1.692968 -1.934036,1.563854 -0.173659,-0.01913 -0.351123,-0.0037 -0.646612,-0.0093 z"
       id="path87"
       style="stroke-width:0.264583" />
    <path
       fill="#dfe0de"
       opacity="1"
       stroke="none"
       d="m 96.15616,54.844079 c 0.38517,1.024191 0.0226,2.191205 0.88434,3.105009 0.19618,0.208055 0.067,0.734748 0.066,1.114719 -0.003,1.169551 -0.0169,2.339073 -0.0407,3.606467 -0.216,0.09863 -0.41787,0.0994 -0.72039,0.08555 -0.0936,-1.242965 -0.09,-2.471352 -0.0782,-3.699656 0.007,-0.740166 0.0131,-1.355331 -0.742711,-1.932487 -0.438184,-0.334598 -0.361063,-1.343999 -0.539064,-2.155619 0.401701,-0.04698 0.732795,-0.08571 1.170715,-0.123986 z"
       id="path88"
       style="stroke-width:0.264583" />
    <path
       fill="#ecebe9"
       opacity="1"
       stroke="none"
       d="m 94.513185,66.478956 c -0.115174,-0.97159 -0.111419,-1.935184 -0.118089,-3.017073 0.07679,-0.125828 0.164137,-0.14115 0.251214,-0.139732 1.90466,0.03105 2.17594,0.216096 2.15011,1.462612 -0.0322,1.552191 -0.23262,1.70984 -2.283235,1.694193 z"
       id="path89"
       style="stroke-width:0.264583" />
    <path
       fill="#dfe0de"
       opacity="1"
       stroke="none"
       d="m 70.294081,63.361969 c 0.101052,0.970121 0.07874,1.91517 0.06914,2.978139 -0.29369,0.129368 -0.600228,0.153191 -0.906494,0.150188 -1.512803,-0.01482 -1.637342,-0.186412 -1.324361,-1.723324 0.08567,-0.420671 0.125243,-0.850725 0.207885,-1.430073 0.631778,0 1.231117,0 1.953829,0.02508 z"
       id="path90"
       style="stroke-width:0.264583" />
    <path
       fill="#a2a2a7"
       opacity="1"
       stroke="none"
       d="m 67.479841,35.351365 c 0.811479,-0.04348 1.62297,-0.08696 2.4077,-0.129014 0.540261,2.656473 0.474504,2.730781 -2.326529,2.549078 -0.111646,-0.887616 -0.09641,-1.653839 -0.08117,-2.420064 z"
       id="path91"
       style="stroke-width:0.264583" />
    <path
       fill="#ecebe9"
       opacity="1"
       stroke="none"
       d="m 100.69744,35.54373 c 0.1089,0.786715 0.11572,1.563278 0.15272,2.449618 -0.81778,0.04626 -1.665724,-0.01725 -2.6236,-0.205144 -0.11538,-0.917046 -0.12082,-1.709719 -0.12627,-2.502387 0.831699,0.08258 1.663383,0.165171 2.59715,0.257913 z"
       id="path92"
       style="stroke-width:0.264583" />
    <path
       fill="#192660"
       opacity="1"
       stroke="none"
       d="m 81.682388,196.89365 c 0.02668,-0.28888 0.0277,-0.54852 0.155789,-0.70245 0.323445,-0.3887 0.704099,-0.7298 1.061829,-1.08998 0.222821,0.41283 0.451199,0.82283 0.66463,1.24046 0.05515,0.10789 0.06334,0.23976 0.102272,0.39792 0.274474,-0.0535 0.526624,-0.10261 0.788549,-0.15365 0,0.53643 0,1.0769 0,1.65694 -0.207553,0.0909 -0.499735,0.2188 -0.830625,0.41635 -0.662557,-0.51633 -1.286404,-1.10229 -1.942444,-1.76559 z"
       id="path93"
       style="stroke-width:0.264583" />
    <path
       fill="#192660"
       opacity="1"
       stroke="none"
       d="m 146.08776,198.71725 c -1.02857,-1.13762 -0.69458,-2.41833 0.64808,-2.84211 0.77723,-0.24532 1.54777,-0.51184 2.32542,-0.75575 0.0594,-0.0186 0.15135,0.0668 0.30781,0.14225 0.0123,1.04866 -0.60888,1.34746 -1.55533,1.36928 -0.28493,0.007 -0.56539,0.20816 -0.8479,0.32041 0.19285,0.2621 0.38569,0.52421 0.67806,0.80134 -0.42253,0.32753 -0.94464,0.64005 -1.55614,0.96458 z"
       id="path94"
       style="stroke-width:0.264583" />
    <path
       fill="#192660"
       opacity="1"
       stroke="none"
       d="m 84.095176,199.14214 c 1.465432,-0.47036 2.997751,-0.35823 4.33369,0.33245 0.657566,0.33995 0.98597,1.31661 1.475436,2.09734 -0.288346,0.0433 -0.588796,-0.006 -0.986438,-0.14555 -0.170371,-0.0795 -0.243541,-0.0679 -0.31672,-0.0563 -0.141256,-0.0359 -0.282501,-0.0718 -0.482603,-0.25394 -0.535043,-1.24256 -1.430628,-1.143 -2.358098,-0.95251 -0.54019,-0.31528 -1.080379,-0.63055 -1.665267,-1.02148 z"
       id="path96"
       style="stroke-width:0.264583" />
    <path
       fill="#192660"
       opacity="1"
       stroke="none"
       d="m 156.9527,189.78181 c -0.88668,-2.26006 0.0278,-3.74725 2.67826,-4.27846 -0.81503,1.43669 -1.7071,2.83606 -2.67826,4.27846 z"
       id="path97"
       style="stroke-width:0.264583" />
    <path
       fill="#cecfcc"
       opacity="1"
       stroke="none"
       d="m 97.98167,35.282018 c 0.12407,0.796467 0.12951,1.58914 0.12822,2.500076 -0.22538,0.122201 -0.44491,0.114909 -0.66252,0.131967 -1.00792,0.07901 -1.731916,0.03155 -1.756784,-1.379702 -0.02716,-1.541423 0.883104,-1.28052 1.778924,-1.265454 0.1312,0.0021 0.26236,0.0062 0.51216,0.01312 z"
       id="path98"
       style="stroke-width:0.264583" />
    <path
       fill="#192660"
       opacity="1"
       stroke="none"
       d="m 83.173826,183.16784 c 0.653843,0.002 1.18591,0.0248 1.831694,0.0564 0.120949,0.17578 0.128191,0.34332 0.112154,0.56902 -1.647089,0.0503 -3.271035,0.0526 -4.894622,0.0292 -0.555649,-0.008 -1.110387,-0.0801 -1.779,-0.12266 0.147317,-0.16589 0.402688,-0.4647 0.669824,-0.47562 1.310998,-0.0535 2.625146,-0.0305 4.05995,-0.0563 z"
       id="path99"
       style="stroke-width:0.264583" />
    <path
       fill="#c4c3c6"
       opacity="1"
       stroke="none"
       d="m 100.6336,63.473922 c 0.10503,0.935355 0.12179,1.834964 0.14674,2.852057 -0.52927,0.12432 -1.066747,0.131154 -1.730334,0.01836 -0.112937,-1.074793 -0.0998,-2.029968 -0.0866,-2.985145 0.527297,0.02633 1.054604,0.05264 1.670184,0.114712 z"
       id="path101"
       style="stroke-width:0.264583" />
    <path
       fill="#ecebe9"
       opacity="1"
       stroke="none"
       d="m 98.849889,63.343839 c 0.100347,0.970547 0.0872,1.925722 0.0855,2.999142 -0.37479,0.118243 -0.761099,0.118243 -1.134219,0.118243 -0.34523,-2.874021 -0.98645,-3.156752 1.048719,-3.117385 z"
       id="path102"
       style="stroke-width:0.264583" />
    <path
       fill="#b7b9b9"
       opacity="1"
       stroke="none"
       d="m 68.613207,62.719124 c -0.107453,-1.449433 -0.157869,-2.881395 -0.09703,-4.308613 0.01662,-0.389975 0.367406,-0.765707 0.670132,-1.155848 0.104791,1.724083 0.104291,3.456043 0.113342,5.300885 -0.189468,0.136199 -0.38848,0.159517 -0.686444,0.163576 z"
       id="path103"
       style="stroke-width:0.264583" />
    <path
       fill="#192660"
       opacity="1"
       stroke="none"
       d="m 160.15835,184.72847 c -0.45737,0.0225 -0.84074,-0.006 -1.45621,-0.0506 0.0916,-0.69798 0.19169,-1.46062 0.32752,-2.49559 0.70432,0.39222 1.17089,0.65205 1.72103,0.95304 -0.11708,0.54164 -0.31773,1.04208 -0.59234,1.59316 z"
       id="path104"
       style="stroke-width:0.264583" />
    <path
       fill="#192660"
       opacity="1"
       stroke="none"
       d="m 85.997419,191.29179 c -0.314267,0.49621 -0.630089,0.9348 -0.945906,1.37338 -0.03189,-0.5544 -0.03201,-1.11307 -0.105315,-1.66194 -0.06343,-0.47492 -0.28707,-0.93706 -0.297429,-1.40796 -0.0098,-0.44593 0.165629,-0.89592 0.356979,-1.37096 0.233391,0.62676 0.36939,1.28033 0.485161,2.10196 0.113906,0.35177 0.248015,0.53546 0.382122,0.71917 0.06865,0.0449 0.109595,0.1078 0.124388,0.24635 z"
       id="path105"
       style="stroke-width:0.264583" />
    <path
       fill="#192660"
       opacity="1"
       stroke="none"
       d="m 154.89934,179.96808 c 1.54766,1.50958 1.33966,2.09341 -0.89647,2.65842 -0.0409,0.0103 -0.0856,0.006 -0.23458,0.008 0.0347,-0.31075 0.17544,-0.6212 0.44391,-1.04647 0.15736,-0.22417 0.18702,-0.33357 0.21669,-0.44296 0.1335,-0.37506 0.267,-0.75012 0.47045,-1.17666 z"
       id="path106"
       style="stroke-width:0.264583" />
    <path
       fill="#cecfcc"
       opacity="1"
       stroke="none"
       d="m 67.371433,35.326036 c 0.09317,0.791554 0.07793,1.557777 0.07152,2.439559 -0.53204,0.175107 -1.147935,0.24833 -1.055055,-0.562771 0.08056,-0.703498 -0.524976,-1.787319 0.983533,-1.876788 z"
       id="path107"
       style="stroke-width:0.264583" />
    <path
       fill="#192660"
       opacity="1"
       stroke="none"
       d="m 140.54624,200.83074 c -0.25972,-0.51429 -0.42426,-1.0275 -0.6097,-1.6059 0.93378,0.26203 1.77392,0.49778 2.62793,0.82226 -0.63178,0.32074 -1.27741,0.55273 -2.01823,0.78364 z"
       id="path108"
       style="stroke-width:0.264583" />
    <path
       fill="#192660"
       opacity="1"
       stroke="none"
       d="m 152.44632,194.51729 c -0.0881,-1.9504 -0.0853,-1.95329 2.04778,-2.07214 -0.60016,0.70213 -1.28171,1.37456 -2.04778,2.07214 z"
       id="path109"
       style="stroke-width:0.264583" />
    <path
       fill="#192660"
       opacity="1"
       stroke="none"
       d="m 80.235109,194.87877 c 0.41475,-0.24125 0.852144,-0.40106 1.619144,-0.68133 -0.303995,0.80346 -0.489368,1.2934 -0.682201,1.88583 -0.309737,-0.30606 -0.612021,-0.71456 -0.936943,-1.2045 z"
       id="path110"
       style="stroke-width:0.264583" />
    <path
       fill="#17255e"
       opacity="1"
       stroke="none"
       d="m 85.825199,200.23941 c 0.862714,-0.26628 1.758299,-0.36584 2.235547,0.82895 -0.722905,-0.18541 -1.446853,-0.46929 -2.235547,-0.82895 z"
       id="path111"
       style="stroke-width:0.264583" />
    <path
       fill="#192660"
       opacity="1"
       stroke="none"
       d="m 161.55226,181.56288 c -0.25083,-0.32726 -0.4729,-0.70792 -0.63336,-1.11297 -0.019,-0.048 0.29917,-0.2296 0.46105,-0.34928 0.10626,0.18148 0.21254,0.36296 0.37588,0.60828 -0.014,0.30699 -0.0852,0.55011 -0.20357,0.85397 z"
       id="path112"
       style="stroke-width:0.264583" />
    <path
       fill="#192660"
       opacity="1"
       stroke="none"
       d="m 163.43364,73.522185 c -0.0172,0.109652 -0.1249,0.110911 -0.25383,0.0374 -0.16692,-0.728348 -0.2049,-1.383192 -0.24288,-2.03803 0.0457,-0.0011 0.0915,-0.0021 0.20578,-0.0049 0.14846,0.630912 0.22832,1.263391 0.29093,2.005521 z"
       id="path115"
       style="stroke-width:0.264583" />
    <path
       fill="#192660"
       opacity="1"
       stroke="none"
       d="m 144.00695,199.60814 c -0.003,-0.33907 0.0866,-0.68152 0.17639,-1.02398 0.29713,0.13121 0.59425,0.26242 0.97846,0.43586 -0.29588,0.22306 -0.67883,0.4039 -1.15485,0.58812 z"
       id="path117"
       style="stroke-width:0.264583" />
    <path
       fill="#192660"
       opacity="1"
       stroke="none"
       d="m 78.549568,190.14169 c 0.342146,0.0942 0.67038,0.28045 0.998625,0.46673 -0.185293,0.16519 -0.370586,0.33036 -0.653902,0.49769 -0.184896,-0.28935 -0.271762,-0.58084 -0.344723,-0.96442 z"
       id="path118"
       style="stroke-width:0.264583" />
    <path
       fill="#192660"
       opacity="1"
       stroke="none"
       d="m 79.525179,193.41143 c 1.463961,-0.53411 0.772822,0.40855 0.625213,1.06185 -0.230777,-0.26839 -0.420542,-0.62197 -0.625213,-1.06185 z"
       id="path119"
       style="stroke-width:0.264583" />
    <path
       fill="#192660"
       opacity="1"
       stroke="none"
       d="m 155.7884,177.40789 c 0.99572,-0.0631 0.87029,0.5206 0.61169,1.20086 -0.0732,0.0641 -0.0758,0.0617 -0.0758,0.0617 -0.17597,-0.25476 -0.35193,-0.50953 -0.56498,-0.85047 -0.0271,-0.17547 -0.0172,-0.26476 0.0291,-0.41211 z"
       id="path120"
       style="stroke-width:0.264583" />
    <path
       fill="#192660"
       opacity="1"
       stroke="none"
       d="m 163.20019,172.05808 c 0,0 0.10965,2.5e-4 0.16446,2.7e-4 0.0599,0.28548 0.065,0.57088 0.036,0.95819 -0.12921,0.101 -0.22441,0.10006 -0.38987,0.002 0.0163,-0.38497 0.10286,-0.67265 0.18943,-0.96031 z"
       id="path122"
       style="stroke-width:0.264583" />
    <path
       fill="#192660"
       opacity="1"
       stroke="none"
       d="m 137.97615,194.52926 c 0.0915,0.21139 0.0928,0.41168 0.0943,0.71213 -0.17515,-0.0829 -0.35043,-0.26594 -0.52775,-0.53727 0.11306,-0.12083 0.22817,-0.1534 0.43341,-0.17486 z"
       id="path123"
       style="stroke-width:0.264583" />
    <path
       fill="#192660"
       opacity="1"
       stroke="none"
       d="m 162.51157,178.40663 c -0.16036,-0.15327 -0.25331,-0.38069 -0.35505,-0.70015 0.12943,-0.1638 0.26768,-0.23556 0.47923,-0.33409 0.0299,0.30221 -0.0134,0.63115 -0.12418,1.03424 z"
       id="path124"
       style="stroke-width:0.264583" />
    <path
       fill="#192660"
       opacity="1"
       stroke="none"
       d="m 88.05611,193.6765 c -0.140697,-0.0316 -0.315235,-0.12927 -0.505208,-0.30727 0.146825,0.0269 0.309097,0.13407 0.505208,0.30727 z"
       id="path126"
       style="stroke-width:0.264583" />
    <path
       fill="#192660"
       opacity="1"
       stroke="none"
       d="m 156.51545,173.9055 c 0.0315,0.16491 0.014,0.40535 -0.0636,0.71354 -0.0351,-0.16752 -0.0103,-0.40277 0.0636,-0.71354 z"
       id="path127"
       style="stroke-width:0.264583" />
    <path
       fill="#192660"
       opacity="1"
       stroke="none"
       d="m 143.44534,199.84751 c 0.0601,-0.10186 0.20128,-0.20148 0.40974,-0.27102 -0.0647,0.11116 -0.19671,0.19221 -0.40974,0.27102 z"
       id="path128"
       style="stroke-width:0.264583" />
    <path
       fill="#17255e"
       opacity="1"
       stroke="none"
       d="m 85.84381,190.95325 c -0.104886,-0.0915 -0.238995,-0.27521 -0.331925,-0.53266 0.128368,0.0977 0.21554,0.26908 0.331925,0.53266 z"
       id="path129"
       style="stroke-width:0.264583" />
    <path
       fill="#192660"
       opacity="1"
       stroke="none"
       d="m 155.87702,191.10308 c 0.0339,-0.1446 0.13701,-0.31998 0.32237,-0.50974 -0.0296,0.15005 -0.14138,0.3145 -0.32237,0.50974 z"
       id="path131"
       style="stroke-width:0.264583" />
    <path
       fill="#192660"
       opacity="1"
       stroke="none"
       d="m 85.117063,186.51059 c -0.07516,-0.081 -0.128458,-0.25342 -0.144129,-0.51421 0.0804,0.082 0.12319,0.25242 0.144129,0.51421 z"
       id="path132"
       style="stroke-width:0.264583" />
    <path
       fill="#17255e"
       opacity="1"
       stroke="none"
       d="m 154.35803,181.19629 c 0.0412,0.0578 0.0115,0.16723 -0.085,0.33093 -0.0399,-0.0569 -0.0129,-0.16814 0.085,-0.33093 z"
       id="path133"
       style="stroke-width:0.264583" />
    <path
       fill="#17255e"
       opacity="1"
       stroke="none"
       d="m 88.661175,201.40448 c 0.01315,-0.046 0.08632,-0.0576 0.178383,-0.0264 -0.02686,0.0488 -0.0726,0.0548 -0.178383,0.0264 z"
       id="path135"
       style="stroke-width:0.264583" />
    <path
       fill="#192660"
       opacity="1"
       stroke="none"
       d="m 141.9631,193.19074 c -0.007,0.062 -0.0785,0.12207 -0.21906,0.15306 -0.0128,-0.10337 0.0613,-0.14531 0.21906,-0.15306 z"
       id="path136"
       style="stroke-width:0.264583" />
    <path
       fill="#192660"
       opacity="1"
       stroke="none"
       d="m 163.16705,175.16439 c -0.12139,0.005 -0.13917,-0.064 -0.0418,-0.16863 0.0483,0.0217 0.0584,0.0648 0.0418,0.16863 z"
       id="path137"
       style="stroke-width:0.264583" />
    <path
       fill="#192660"
       opacity="1"
       stroke="none"
       d="m 90.127068,194.78922 c 0.01714,0.0324 -0.09397,0.001 -0.120399,-0.0103 0.0132,-0.0587 0.05643,-0.0623 0.120399,0.0103 z"
       id="path139"
       style="stroke-width:0.264583" />
    <path
       fill="#192660"
       opacity="1"
       stroke="none"
       d="m 138.25265,194.43498 c 0.003,0.057 -0.0477,0.084 -0.1489,0.10229 -0.019,-0.0649 0.0295,-0.1061 0.1489,-0.10229 z"
       id="path140"
       style="stroke-width:0.264583" />
    <path
       fill="#192660"
       opacity="1"
       stroke="none"
       d="m 141.5415,193.37371 c 0.042,0.0578 0.0687,0.12086 0.0953,0.18389 -0.0319,-0.0175 -0.0638,-0.035 -0.11582,-0.10538 -0.0201,-0.0529 0.005,-0.0733 0.0205,-0.0785 z"
       id="path141"
       style="stroke-width:0.264583" />
    <path
       fill="#192660"
       opacity="1"
       stroke="none"
       d="m 79.356981,193.03303 c 0.06059,0.002 0.114035,0.0719 0.159033,0.21013 -0.06103,-0.002 -0.113607,-0.0718 -0.159033,-0.21013 z"
       id="path142"
       style="stroke-width:0.264583" />
    <path
       fill="#17255e"
       opacity="1"
       stroke="none"
       d="m 149.09558,188.44452 c 0.0143,0.0562 -0.0425,0.1346 -0.16986,0.2366 -0.0141,-0.0557 0.0423,-0.13507 0.16986,-0.2366 z"
       id="path143"
       style="stroke-width:0.264583" />
    <path
       fill="#192660"
       opacity="1"
       stroke="none"
       d="m 155.42276,178.56638 c 0.0429,0.0525 0.0206,0.15404 -0.0591,0.30975 -0.0403,-0.0508 -0.0232,-0.15576 0.0591,-0.30975 z"
       id="path145"
       style="stroke-width:0.264583" />
    <path
       fill="#152159"
       opacity="1"
       stroke="none"
       d="m 156.98942,171.52607 c -0.10711,-0.1829 -0.12413,-0.35897 -0.12413,-0.53504 0.002,-31.74992 0.005,-63.49982 0.0197,-95.372032 0.75061,-0.112671 1.35006,0.05755 1.29433,1.21173 5.3e-4,30.481742 7.9e-4,60.737612 0.001,90.993502 0.0503,1.71637 0.10054,3.43274 0.0745,5.14087 -0.25253,-0.13074 -0.42876,-0.25326 -0.60499,-0.37578 -0.18746,-0.35215 -0.3749,-0.70429 -0.66036,-1.06325 z"
       id="path146"
       style="stroke-width:0.264583" />
    <path
       fill="#161f6b"
       opacity="1"
       stroke="none"
       d="m 163.20129,171.93406 c -0.0877,0.41168 -0.17423,0.69936 -0.26194,1.08327 -10e-4,0.0963 -0.13213,0.098 -0.28561,0.0986 -0.27078,5.3e-4 -0.38809,5.3e-4 -0.50523,-0.12293 2.6e-4,-33.90785 2.6e-4,-67.69214 0.0661,-101.476463 0.0657,-2.4e-5 0.19699,-5.29e-4 0.19699,-5.29e-4 0.11679,7.94e-4 0.23356,0.0019 0.43783,0.0041 0.12544,0.656373 0.16342,1.311216 0.27653,2.039871 0.0755,32.799251 0.076,65.524701 0.0753,98.374161 z"
       id="path147"
       style="stroke-width:0.264583" />
    <path
       fill="#152159"
       opacity="1"
       stroke="none"
       d="m 162.14899,71.516551 c -1.1e-4,33.784299 -2.2e-4,67.568589 -0.0888,101.476439 -0.20621,0.12376 -0.32395,0.12398 -0.44168,0.1242 -0.0854,-0.12355 -0.17076,-0.24709 -0.26046,-0.57285 -0.004,-1.26686 -0.005,-2.33154 -0.005,-3.39621 2.5e-4,-32.46158 5.2e-4,-64.92316 0.10031,-97.508251 0.29813,-0.123442 0.49676,-0.123383 0.69537,-0.123328 z"
       id="path148"
       style="stroke-width:0.264583" />
    <path
       fill="#192660"
       opacity="1"
       stroke="none"
       d="m 158.285,167.8002 c -0.10498,-30.23186 -0.10519,-60.48773 -0.10508,-90.867546 0.17118,0.0418 0.44028,0.182255 0.49088,0.378933 0.0854,0.331844 0.0367,0.699318 0.0367,1.051809 7.9e-4,29.318604 0.002,58.637204 -0.0126,87.955804 -2.4e-4,0.48572 -0.19901,0.97131 -0.40988,1.481 z"
       id="path149"
       style="stroke-width:0.264583" />
    <path
       fill="#192660"
       opacity="1"
       stroke="none"
       d="m 103.4102,200.63321 c 9.37405,0 18.61581,0 27.85757,0 1.6e-4,0.11493 2.7e-4,0.22986 5.3e-4,0.3448 -12.39766,0 -24.79532,0 -37.192972,0 -0.0035,-0.11494 -0.007,-0.22987 -0.01042,-0.3448 3.071022,0 6.142032,0 9.345342,0 z"
       id="path150"
       style="stroke-width:0.264583" />
    <path
       fill="#192660"
       opacity="1"
       stroke="none"
       d="m 138.01427,195.41665 c 0.52205,-0.14421 0.98773,-0.21329 1.45752,-0.28299 0.0599,1.04144 -1.83185,1.54078 -3.97319,0.79872 0.37214,-0.0815 0.74211,-0.1752 1.11694,-0.24144 0.44529,-0.0787 0.89474,-0.13382 1.39873,-0.27429 z"
       id="path151"
       style="stroke-width:0.264583" />
    <path
       fill="#192660"
       opacity="1"
       stroke="none"
       d="m 161.24905,169.17189 c 0.1044,1.04091 0.10455,2.10559 0.10448,3.29277 -0.98649,-0.95163 -0.60628,-2.1098 -0.10448,-3.29277 z"
       id="path152"
       style="stroke-width:0.264583" />
    <path
       fill="#192660"
       opacity="1"
       stroke="none"
       d="m 79.091363,187.53782 c 0.05027,-0.61493 0.115134,-1.12446 0.179996,-1.63399 0.140584,0.01 0.281175,0.0191 0.421762,0.0286 0,0.70115 0,1.40229 0,2.10344 -0.113729,0.10738 -0.227457,0.21473 -0.341188,0.32211 -0.08199,-0.23823 -0.163976,-0.47646 -0.26057,-0.82011 z"
       id="path153"
       style="stroke-width:0.264583" />
    <path
       fill="#192660"
       opacity="1"
       stroke="none"
       d="m 162.21465,71.516527 c -0.26427,-3.1e-5 -0.4629,-9e-5 -0.76079,-2.19e-4 0.0852,-0.407636 0.26971,-0.815187 0.45419,-1.222743 0.16789,0.339754 0.33577,0.679511 0.50362,1.120804 -3e-5,0.101537 -0.13135,0.102134 -0.19702,0.102158 z"
       id="path154"
       style="stroke-width:0.264583" />
    <path
       fill="#192660"
       opacity="1"
       stroke="none"
       d="m 161.6186,173.22393 c 0.11766,-0.10696 0.2354,-0.10718 0.44144,-0.10738 0.20561,0 0.32292,0 0.5282,0 -0.0548,0.448 -0.19755,0.896 -0.34032,1.344 -0.14763,-0.0115 -0.29528,-0.0231 -0.44293,-0.0346 -0.0621,-0.36507 -0.12423,-0.73015 -0.18639,-1.20198 z"
       id="path155"
       style="stroke-width:0.264583" />
    <path
       fill="#192660"
       opacity="1"
       stroke="none"
       d="m 138.83465,198.515 c -0.36362,-0.0524 -0.62467,-0.10547 -0.88571,-0.15855 0.008,-0.0811 0.0153,-0.16214 0.0229,-0.24321 0.50438,0 1.00876,0 1.51314,0 0.0165,0.0551 0.0331,0.11017 0.0496,0.16527 -0.19912,0.0786 -0.39823,0.15719 -0.69991,0.23649 z"
       id="path156"
       style="stroke-width:0.264583" />
    <path
       fill="#192660"
       opacity="1"
       stroke="none"
       d="m 135.70729,200.56437 c -0.14246,-0.29451 -0.19716,-0.56046 -0.25185,-0.82642 0.0825,-0.0539 0.16507,-0.10784 0.24761,-0.16178 0.224,0.19876 0.448,0.39752 0.672,0.59626 -0.19333,0.14016 -0.38667,0.28033 -0.66776,0.39194 z"
       id="path157"
       style="stroke-width:0.264583" />
    <path
       fill="#192660"
       opacity="1"
       stroke="none"
       d="m 91.293404,198.67158 c -0.312269,-0.042 -0.552,-0.14116 -0.791739,-0.24032 0.08368,-0.12725 0.167375,-0.25449 0.251068,-0.38174 0.204404,0.18831 0.408808,0.37662 0.540671,0.62206 z"
       id="path158"
       style="stroke-width:0.264583" />
    <path
       fill="#192660"
       opacity="1"
       stroke="none"
       d="m 147.18397,193.74759 c 0.3008,-0.0493 0.58484,-0.007 0.86889,0.0346 -0.0268,0.11629 -0.0536,0.23258 -0.0804,0.34887 -0.26841,-0.0974 -0.53681,-0.19482 -0.78845,-0.38347 z"
       id="path159"
       style="stroke-width:0.264583" />
    <path
       fill="#192660"
       opacity="1"
       stroke="none"
       d="m 156.32816,178.67409 c 0.004,0.2376 0.007,0.4739 0.009,0.71021 -0.14529,-0.0349 -0.2906,-0.0698 -0.43589,-0.10469 0.0828,-0.1934 0.16549,-0.38679 0.33551,-0.59467 0.0873,-0.0145 0.0899,-0.0121 0.0911,-0.0109 z"
       id="path160"
       style="stroke-width:0.264583" />
    <path
       fill="#192660"
       opacity="1"
       stroke="none"
       d="m 150.68929,194.67372 c 0.19959,-0.002 0.34116,0.0526 0.48276,0.10685 -0.0357,0.0725 -0.0714,0.14501 -0.1071,0.2175 -0.14455,-0.0895 -0.28912,-0.17909 -0.37566,-0.32435 z"
       id="path161"
       style="stroke-width:0.264583" />
    <path
       fill="#192660"
       opacity="1"
       stroke="none"
       d="m 89.280356,195.46308 c 0.184317,0.03 0.314661,0.11245 0.445008,0.19494 -0.07077,0.0981 -0.141528,0.1962 -0.212294,0.29431 -0.09555,-0.14558 -0.191114,-0.29117 -0.232714,-0.48925 z"
       id="path162"
       style="stroke-width:0.264583" />
    <path
       fill="#192660"
       opacity="1"
       stroke="none"
       d="m 79.838695,192.25397 c 0.182964,0.0277 0.310348,0.10152 0.437732,0.17535 -0.05098,0.0558 -0.140383,0.16462 -0.147223,0.15965 -0.121335,-0.0881 -0.232632,-0.18998 -0.290509,-0.335 z"
       id="path163"
       style="stroke-width:0.264583" />
    <path
       fill="#192660"
       opacity="1"
       stroke="none"
       d="m 157.6498,172.65449 c 0.17622,0.0574 0.35245,0.17987 0.5286,0.38222 -0.11725,0.0798 -0.23441,0.0798 -0.43976,0.0132 -0.0884,-0.11106 -0.0887,-0.15547 -0.0889,-0.19988 0,0 4e-5,-0.13037 2e-5,-0.19554 z"
       id="path164"
       style="stroke-width:0.264583" />
    <path
       fill="#192660"
       opacity="1"
       stroke="none"
       d="m 155.16538,190.19176 c 0.11864,0.0306 0.19133,0.10533 0.25843,0.18478 0.002,0.002 -0.0582,0.0562 -0.0894,0.086 -0.0719,-0.0753 -0.14377,-0.15069 -0.16899,-0.27076 z"
       id="path165"
       style="stroke-width:0.264583" />
    <path
       fill="#192660"
       opacity="1"
       stroke="none"
       d="m 162.14748,177.53813 c -0.10557,-0.0488 -0.21903,-0.16892 -0.30812,-0.30499 -0.0121,-0.0185 0.0976,-0.11682 0.15091,-0.17819 0.0523,0.13562 0.10466,0.27122 0.15721,0.48318 z"
       id="path166"
       style="stroke-width:0.264583" />
    <path
       fill="#192660"
       opacity="1"
       stroke="none"
       d="m 161.76013,175.60112 c 0.0307,-0.11886 0.10618,-0.19098 0.18166,-0.2631 0.0298,0.0313 0.0597,0.0625 0.0895,0.0938 -0.0755,0.072 -0.15096,0.14405 -0.27119,0.16934 z"
       id="path167"
       style="stroke-width:0.264583" />
    <path
       fill="#192660"
       opacity="1"
       stroke="none"
       d="m 90.322558,196.23868 c 0.03067,-0.11881 0.105476,-0.19165 0.185057,-0.25882 0.0021,-0.002 0.05624,0.0583 0.0861,0.0895 -0.07546,0.072 -0.150918,0.14401 -0.271155,0.16931 z"
       id="path168"
       style="stroke-width:0.264583" />
    <path
       fill="#192660"
       opacity="1"
       stroke="none"
       d="m 92.640617,196.10474 c -0.02177,-0.077 0.0021,-0.17893 0.05771,-0.20105 0.04507,-0.0179 0.128329,0.0601 0.194652,0.0957 -0.06434,0.0383 -0.128667,0.0766 -0.25236,0.1054 z"
       id="path169"
       style="stroke-width:0.264583" />
    <path
       fill="#192660"
       opacity="1"
       stroke="none"
       d="m 154.80745,191.27936 c 0.0453,0.0819 0.0344,0.1746 0.0234,0.26734 -0.0643,-0.023 -0.12867,-0.046 -0.19301,-0.069 0.0378,-0.0625 0.0756,-0.12496 0.16956,-0.19831 z"
       id="path170"
       style="stroke-width:0.264583" />
    <path
       fill="#192660"
       opacity="1"
       stroke="none"
       d="m 161.28674,178.50262 c 0.0656,0.004 0.10128,0.0391 0.13699,0.0742 -0.0556,-0.0143 -0.11122,-0.0286 -0.13699,-0.0742 z"
       id="path171"
       style="stroke-width:0.264583" />
    <path
       fill="#192660"
       opacity="1"
       stroke="none"
       d="m 142.71378,198.64051 c 0.008,0.0144 -0.009,-0.0143 0,0 z"
       id="path172"
       style="stroke-width:0.264583" />
    <path
       fill="#192660"
       opacity="1"
       stroke="none"
       d="m 142.42786,199.16499 c 0.0144,-0.009 -0.0144,0.009 0,0 z"
       id="path173"
       style="stroke-width:0.264583" />
    <path
       fill="#152159"
       opacity="1"
       stroke="none"
       d="m 157.60549,172.87404 c 0.0445,0.0204 0.0447,0.0648 0.0453,0.17588 -0.0296,-0.006 -0.0596,-0.079 -0.0453,-0.17588 z"
       id="path174"
       style="stroke-width:0.264583" />
    <path
       fill="#192660"
       opacity="1"
       stroke="none"
       d="m 79.986075,191.49193 c 0.01458,-0.009 -0.01458,0.009 0,0 z"
       id="path175"
       style="stroke-width:0.264583" />
    <path
       fill="#0a0b63"
       opacity="1"
       stroke="none"
       d="m 63.548534,177.53167 c -0.540567,0.0874 -1.002717,0.0994 -1.577996,0.0334 -0.11313,-0.078 -0.1193,-0.19896 -0.1193,-0.19896 0.09466,-0.54267 0.271904,-1.0853 0.272145,-1.628 0.01333,-29.87938 0.01032,-59.75874 0.02185,-89.638119 2.52e-4,-0.648951 0.150334,-1.297844 0.357376,-2.05841 0.861078,-0.194641 1.594956,-0.345739 2.329582,-0.349478 4.38128,-0.02233 8.762748,-0.01762 13.144076,-1.21e-4 0.460867,0.0019 0.921166,0.146245 1.33671,0.321114 -0.199681,0.950627 -0.488837,1.804524 -0.489546,2.658671 -0.02355,28.283473 -0.03513,56.566993 0.01476,84.850383 0.0034,1.9423 0.497054,3.8837 0.76272,5.82552 -4.845151,0.004 -9.690317,0.004 -14.535452,0.0149 -0.479575,0.001 -0.95903,0.061 -1.516956,0.16916 z"
       id="path258"
       style="stroke-width:0.264583" />
    <path
       fill="#100e30"
       opacity="1"
       stroke="none"
       d="m 79.358005,83.916463 c -0.460558,-0.07826 -0.920856,-0.222652 -1.381723,-0.224501 -4.381328,-0.01749 -8.762796,-0.02222 -13.144077,1.21e-4 -0.734626,0.0037 -1.468503,0.154837 -2.315289,0.238213 -4.122867,-0.11938 -8.13317,-0.239126 -12.21714,-0.442495 -0.03479,-0.165632 0.02981,-0.211066 0.279238,-0.222356 5.8953,-0.02334 11.631464,-0.04428 17.48568,-0.02461 4.709946,0.01619 9.301848,-0.0082 14.01137,0.01106 2.332636,0.0195 4.547648,-0.0047 6.88013,0.01706 3.388915,0.02954 6.660364,0.0132 9.931805,-0.0031 1.776581,0.02482 3.553171,0.04964 5.571901,0.08024 2.98147,-0.01656 5.72082,-0.03891 8.46015,-0.06125 0.0441,0.02749 0.0882,0.05498 0.19684,0.126188 -0.0543,0.12324 -0.17312,0.202758 -0.49134,0.281749 -6.02629,5.29e-4 -11.85319,0.0016 -17.796008,-0.0011 -0.656493,-0.0016 -1.197044,2.64e-4 -1.861588,-0.0011 -4.619307,0.07306 -9.114631,0.149368 -13.609949,0.225672 z"
       id="path259"
       style="stroke-width:0.264583" />
    <path
       fill="#1e2650"
       opacity="1"
       stroke="none"
       d="m 61.732334,177.36444 c 0.118904,0.002 0.125074,0.12266 0.1241,0.18323 -0.969187,0.0753 -1.937406,0.09 -3.023579,0.0829 0.848223,-0.10379 1.814399,-0.18576 2.899479,-0.26609 z"
       id="path260"
       style="stroke-width:0.264583" />
    <path
       fill="#ccccc9"
       opacity="1"
       stroke="none"
       d="m 88.838719,83.223048 c -2.215007,0.02418 -4.430019,0.04834 -6.810978,-0.05272 -0.984089,-0.175612 -1.802056,-0.265853 -2.620399,-0.269557 -3.817604,-0.0173 -7.635314,-0.01069 -11.557693,-0.01283 -0.383294,-0.0024 -0.661882,-0.0044 -0.940475,-0.0066 0.02577,-0.212974 -0.02384,-0.553038 0.08867,-0.619813 1.625156,-0.964353 1.278295,-2.793651 2.029855,-4.401685 0.873196,0 1.900086,0 3.051275,-0.0086 3.386026,-0.007 6.647746,-0.0054 10.047094,0.103079 0.137621,0.839976 0.137621,1.57307 0.137621,2.489875 1.305726,0.710316 0.02479,1.259427 -0.642612,2.038742 2.235483,0.716475 4.364736,0.293441 6.448216,0.404754 0.196736,0.0016 0.393461,0.0033 0.685821,0.06133 0.08405,0.128529 0.08005,0.201054 0.0836,0.273992 z"
       id="path261"
       style="stroke-width:0.264583" />
    <path
       fill="#b7b9b9"
       opacity="1"
       stroke="none"
       d="m 88.068204,82.786002 c -2.082389,-0.0096 -4.211642,0.413443 -6.447125,-0.303033 0.667393,-0.779314 1.948338,-1.328425 0.642612,-2.038741 0,-0.916805 0,-1.6499 -0.01418,-2.485758 0.524298,-0.110514 1.062792,-0.118282 1.714923,-0.141528 0.740773,-0.0013 1.367907,0.01283 2.110732,0.01924 0.835697,0.0021 1.555703,0.01209 2.394614,0.02397 0.533938,1.67304 0.348073,3.279143 -0.401568,4.925854 z"
       id="path262"
       style="stroke-width:0.264583" />
    <path
       fill="#969698"
       opacity="1"
       stroke="none"
       d="m 104.128,77.786009 c 0.0465,1.093391 0.006,2.110894 -0.005,3.128725 -0.006,0.588515 0.0358,1.177551 0.0696,1.870106 -1.79916,-0.0016 -3.61182,-0.107061 -5.263271,-0.203089 0.202677,-1.405937 0.355387,-2.689862 0.595964,-3.957108 0.0522,-0.27491 0.40117,-0.677185 0.645017,-0.701289 1.28877,-0.127325 2.58762,-0.1525 3.95769,-0.137345 z"
       id="path263"
       style="stroke-width:0.264583" />
    <path
       fill="#b7b9b9"
       opacity="1"
       stroke="none"
       d="m 88.956194,83.268951 c -0.121029,-0.11884 -0.117025,-0.191365 -0.102733,-0.317892 0.795859,-0.05635 1.588987,-0.06005 2.382116,-0.05985 2.106257,5.29e-4 4.212621,-0.0075 6.318693,0.01302 0.41915,0.0041 0.837189,0.120195 1.294739,0.273111 -3.232451,0.104804 -6.5039,0.121155 -9.892815,0.09161 z"
       id="path264"
       style="stroke-width:0.264583" />
    <path
       fill="#969698"
       opacity="1"
       stroke="none"
       d="m 112.8841,83.192955 c -2.70338,0.114162 -5.44273,0.136506 -8.30326,0.12923 -0.11899,-0.117951 -0.11679,-0.206277 -0.1128,-0.360878 2.3775,-0.0673 4.75328,-0.07835 7.12884,-0.05992 0.41758,0.0032 0.8342,0.130021 1.28722,0.291568 z"
       id="path265"
       style="stroke-width:0.264583" />
    <path
       fill="#b7b9b9"
       opacity="1"
       stroke="none"
       d="m 69.280174,54.72758 c -0.835933,-0.185571 -1.052441,-1.396974 -0.600416,-2.577994 0.290091,-0.757936 0.407678,-1.581896 0.604647,-2.487901 0.967737,0.025 1.618046,1.310084 0.875649,1.883415 -1.161664,0.897102 -0.799878,1.990511 -0.87988,3.18248 z"
       id="path266"
       style="stroke-width:0.264583" />
    <path
       fill="#b7b9b9"
       opacity="1"
       stroke="none"
       d="m 69.405634,57.239463 c -0.115408,-0.727438 -0.122708,-1.457151 -0.127852,-2.28954 0.816666,-0.162571 1.107871,0.264358 1.061273,1.021588 -0.03584,0.582379 0.191688,1.326824 -0.933421,1.267952 z"
       id="path267"
       style="stroke-width:0.264583" />
    <path
       fill="#10195d"
       opacity="1"
       stroke="none"
       d="m 94.945482,83.69533 c 5.826878,-0.0011 11.653778,-0.0021 17.605028,0.0046 0.21154,0.700109 0.3747,1.392428 0.37499,2.084811 0.0127,29.961909 0.003,59.923829 0.0376,89.885689 0.002,1.28132 -0.23586,1.74405 -1.64462,1.717 -5.02118,-0.0965 -10.04532,-0.0385 -15.19241,-0.16473 -0.12411,-30.15283 -0.12357,-60.17981 -0.12623,-90.2068 -1e-4,-1.21371 0.29243,-2.53015 -1.054318,-3.320598 z"
       id="path268"
       style="stroke-width:0.264583" />
    <path
       fill="#0d1261"
       opacity="1"
       stroke="none"
       d="m 79.312991,84.013076 c 4.540332,-0.172916 9.035656,-0.249219 13.631426,-0.220321 -0.07623,0.209436 -0.244501,0.384966 -0.4309,0.406984 -2.067031,0.244237 -2.067888,0.23781 -2.067865,2.266262 2.65e-4,30.293749 5.3e-4,60.587489 0.0011,90.881249 -3.532809,0.002 -7.065629,0.004 -10.722052,0.003 -0.389268,-1.94466 -0.882891,-3.88607 -0.886322,-5.82836 -0.04991,-28.2834 -0.03831,-56.56692 -0.01476,-84.850385 7.94e-4,-0.854147 0.289864,-1.708045 0.489545,-2.658671 z"
       id="path269"
       style="stroke-width:0.264583" />
    <path
       fill="#0d175f"
       opacity="1"
       stroke="none"
       d="m 90.570451,177.34947 c -0.124177,-30.29598 -0.1245,-60.58972 -0.124799,-90.883469 -2.3e-5,-2.028452 7.94e-4,-2.022025 2.067865,-2.266262 0.186399,-0.02201 0.354671,-0.197548 0.554892,-0.403754 0.564089,-0.103926 1.10464,-0.105889 1.761133,-0.104256 1.462688,0.794049 1.170158,2.110488 1.170258,3.324198 0.003,30.026983 0.002,60.053973 0.002,90.204233 -1.76917,0.12604 -3.538476,0.12878 -5.431625,0.12931 z"
       id="path270"
       style="stroke-width:0.264583" />
    <path
       fill="#c4c3c6"
       opacity="1"
       stroke="none"
       d="m 88.142492,178.14793 c -0.470223,0.001 -0.838161,-0.001 -1.318057,-0.008 -0.114996,-0.0968 -0.118033,-0.18918 -0.112831,-0.35058 0.638122,-0.0869 1.268002,-0.10485 2.013069,-0.035 0.120779,0.18752 0.126367,0.28726 0.131953,0.38699 -0.203944,8e-4 -0.407895,0.002 -0.714134,0.006 z"
       id="path271"
       style="stroke-width:0.264583" />
    <path
       fill="#a2a2a7"
       opacity="1"
       stroke="none"
       d="m 88.94052,178.13468 c -0.08948,-0.0927 -0.09507,-0.19246 -0.09849,-0.36713 0.286231,-0.0895 0.570296,-0.10412 0.95921,-0.0976 -0.189045,0.16665 -0.482939,0.3122 -0.860719,0.46476 z"
       id="path272"
       style="stroke-width:0.264583" />
    <path
       fill="#ecebe9"
       opacity="1"
       stroke="none"
       d="m 66.787262,82.886229 c 0.400505,-0.0027 0.679093,-5.3e-4 1.061183,0.05383 0.0958,0.121423 0.09404,0.190717 0.0982,0.260165 -5.73617,0.02093 -11.472334,0.04187 -17.319519,0.02699 1.059666,-0.222507 2.230665,-0.407233 3.400718,-0.597831 0.195969,-0.03193 0.387795,-0.08935 0.42708,-0.0986 -0.714454,-1.529615 -1.400995,-2.999478 -2.099387,-4.568026 0.528643,-0.101513 1.069129,-0.104323 1.735477,-0.01024 0.586483,0.73043 1.11561,1.325719 1.494705,2.004772 1.071456,1.919229 2.820191,2.097699 4.650576,1.727332 2.010095,-0.406741 3.004391,-1.921015 3.485695,-3.817112 0.545279,-0.08594 1.090562,-0.171897 1.74031,-0.255135 0.01431,0.731261 -0.0376,1.467165 -0.17562,2.186543 -0.176811,0.921576 -0.426564,1.7902 -1.643997,1.861418 -0.32209,0.01884 -0.625681,0.353902 -0.937765,0.543756 0.01857,0.129474 0.03715,0.258948 0.05573,0.388414 1.301567,0.09952 2.603137,0.199043 4.026614,0.293714 z"
       id="path273"
       style="stroke-width:0.264583" />
    <path
       fill="#fdfefe"
       opacity="1"
       stroke="none"
       d="m 63.665912,77.844355 c -0.425223,1.919261 -1.419519,3.433535 -3.429614,3.840276 -1.830385,0.370367 -3.57912,0.191897 -4.650576,-1.727332 -0.379095,-0.679053 -0.908222,-1.274342 -1.37904,-2.000144 2.351505,-0.09588 4.713364,-0.08496 7.074775,-0.112559 0.648791,-0.0076 1.296231,-0.130297 2.054098,-0.198139 0.146027,0.07732 0.200851,0.134885 0.330357,0.197898 z"
       id="path274"
       style="stroke-width:0.264583" />
    <path
       fill="#dfe0de"
       opacity="1"
       stroke="none"
       d="m 68.064694,83.240844 c -0.122214,-0.110064 -0.120446,-0.179358 -0.111538,-0.300603 3.818872,-0.05017 7.636582,-0.05677 11.454186,-0.03947 0.818343,0.0037 1.63631,0.09394 2.502778,0.225898 -4.543578,0.105977 -9.13548,0.130376 -13.845426,0.114173 z"
       id="path298"
       style="stroke-width:0.264583" />
  </g>
</svg>
